<?xml version="1.0" encoding="UTF-8"?>
<svg id="Layer_1" xmlns="http://www.w3.org/2000/svg" version="1.1" viewBox="0 0 30 30">
  <!-- Generator: Adobe Illustrator 29.6.0, SVG Export Plug-In . SVG Version: 2.1.1 Build 207)  -->
  <defs>
    <style>
      .st0 {
        fill: #fff;
      }

      .st1 {
        fill: #9391f7;
      }
    </style>
  </defs>
  <path class="st1" d="M14,0c12-.7,20.1,12.1,13.8,22.7-5.9,10.1-20.7,9.6-26-.9S3.5.7,14,0Z"/>
  <path class="st0" d="M12.3,15.6c1.3-.2,2.2-1.4,2-2.7-.2-1.3-1.4-2.2-2.7-2-1.3.2-2.2,1.4-2,2.7.2,1.3,1.4,2.2,2.7,2h0ZM18.5,15.6c1.3-.2,2.2-1.4,2-2.7-.2-1.3-1.4-2.2-2.7-2-1.3.2-2.2,1.4-2,2.7.2,1.3,1.4,2.2,2.7,2h0Z"/>
  <path class="st0" d="M15,3.5c-6.4,0-11.7,5.3-11.7,11.9h3c0-4.9,3.9-8.9,8.7-8.9s8.7,4,8.7,8.9h3c0-6.6-5.2-11.9-11.6-11.9h0Z"/>
</svg>