<?xml version="1.0" encoding="UTF-8"?>
<svg id="Layer_1" xmlns="http://www.w3.org/2000/svg" version="1.1" viewBox="0 0 30 30">
  <!-- Generator: Adobe Illustrator 29.1.0, SVG Export Plug-In . SVG Version: 2.1.0 Build 142)  -->
  <defs>
    <style>
      .st0 {
        fill: #0033ad;
      }

      .st1 {
        fill: #fff;
      }
    </style>
  </defs>
  <path class="st0" d="M15,0h0C23.3,0,30,6.7,30,15h0c0,8.3-6.7,15-15,15h0c-8.2-.1-15-6.8-15-15h0C0,6.7,6.8,0,15,0Z"/>
  <g>
    <path class="st1" d="M10.5,14.9c0,.7.5,1.4,1.3,1.4h0c.7,0,1.3-.6,1.3-1.3,0-.7-.6-1.3-1.3-1.3-.7,0-1.3.5-1.3,1.3Z"/>
    <path class="st1" d="M5.6,14.6c-.2,0-.4.2-.5.4s.2.4.4.5c.2,0,.4-.2.5-.4s-.2-.4-.4-.5Z"/>
    <path class="st1" d="M10.5,7.2c.2-.1.3-.4.2-.6-.1-.2-.4-.3-.6-.2s-.3.4-.2.6c.1.2.4.3.6.2,0,0,0,0,0,0Z"/>
    <path class="st1" d="M11.8,9.6c.3-.2.5-.6.3-.9-.2-.3-.6-.5-.9-.3-.3.2-.5.6-.3.9.2.3.6.5.9.3Z"/>
    <path class="st1" d="M7.3,11.2c.3.2.6,0,.8-.2.2-.3,0-.6-.2-.8-.3-.2-.6,0-.8.2-.2.3,0,.6.2.8Z"/>
    <path class="st1" d="M8.1,14.4c-.4,0-.7.3-.7.6s.3.7.6.7.7-.3.7-.6c0-.4-.3-.7-.6-.7Z"/>
    <path class="st1" d="M7.3,18.8c-.3.1-.4.5-.2.7.1.3.5.4.7.2.3-.1.4-.5.2-.7-.1-.3-.5-.4-.7-.2Z"/>
    <path class="st1" d="M9.9,13c.4.2.8.1,1.1-.2.2-.4.1-.8-.2-1.1-.4-.2-.8-.1-1.1.2-.2.4-.1.8.2,1.1Z"/>
    <path class="st1" d="M18.1,9.5c.3.2.7.1.9-.2.2-.3.1-.7-.2-.9-.3-.2-.7-.1-.9.2-.2.3-.1.7.2.9Z"/>
    <path class="st1" d="M19.5,7.2c.2.1.5,0,.6-.1.1-.2,0-.5-.1-.6-.2-.1-.5,0-.6.1-.1.2,0,.5.1.6Z"/>
    <path class="st1" d="M18.2,13.7c-.7,0-1.4.5-1.4,1.3,0,.7.5,1.4,1.3,1.4h0c.7,0,1.3-.6,1.3-1.3,0-.7-.5-1.3-1.3-1.3Z"/>
    <path class="st1" d="M12.2,12.9c.2.4.7.7,1.2.7.7,0,1.3-.6,1.3-1.3s0-.4-.1-.6c-.3-.7-1.1-.9-1.8-.6-.7.3-.9,1.1-.6,1.8Z"/>
    <path class="st1" d="M22.6,11.2c.3-.1.4-.5.2-.7-.1-.3-.5-.4-.7-.2-.3.1-.4.5-.2.7.1.3.5.4.7.2Z"/>
    <path class="st1" d="M19.3,11.6c-.4.2-.5.7-.3,1s.7.5,1,.3c.4-.2.5-.7.3-1-.2-.4-.7-.5-1-.3Z"/>
    <path class="st1" d="M14.9,7c.3,0,.6-.2.6-.5s-.2-.6-.5-.6c-.3,0-.6.2-.6.5,0,.3.2.6.5.6Z"/>
    <path class="st1" d="M14.9,10.4c.4,0,.8-.3.8-.7,0-.4-.3-.8-.7-.8-.4,0-.8.3-.8.7,0,.4.3.8.7.8Z"/>
    <path class="st1" d="M10.7,18.4c.4-.2.5-.7.3-1s-.7-.5-1-.3-.5.7-.3,1c.2.4.7.5,1,.3Z"/>
    <path class="st1" d="M15.4,11.6c-.4.6-.2,1.4.4,1.8s1.4.2,1.8-.4.2-1.4-.4-1.8c-.2-.1-.5-.2-.7-.2-.4,0-.9.2-1.1.6Z"/>
    <path class="st1" d="M17.8,17.1c-.3-.7-1.1-.9-1.8-.6-.7.3-.9,1.1-.6,1.8.3.7,1.1.9,1.8.6.7-.3.9-1.1.6-1.8t0,0Z"/>
    <path class="st1" d="M20.1,17c-.4-.2-.8-.1-1.1.2-.2.4-.1.8.2,1.1.4.2.8.1,1.1-.2.2-.4.1-.8-.2-1.1Z"/>
    <path class="st1" d="M22.6,15c0-.4-.3-.7-.6-.7s-.7.3-.7.6c0,.4.3.7.6.7.4,0,.7-.3.7-.6Z"/>
    <path class="st1" d="M24.5,14.6c-.2,0-.4.2-.5.4,0,.2.2.4.4.5.2,0,.4-.2.5-.4,0-.2-.2-.4-.4-.5Z"/>
    <path class="st1" d="M22.7,18.8c-.3-.2-.6,0-.8.2-.2.3,0,.6.2.8.3.2.6,0,.8-.2.2-.3,0-.6-.2-.8Z"/>
    <path class="st1" d="M10.5,22.8c-.2-.1-.5,0-.6.1-.1.2,0,.5.1.6.2.1.5,0,.6-.1.1-.2,0-.5-.1-.6Z"/>
    <path class="st1" d="M19.5,22.8c-.2.1-.3.4-.2.6.1.2.4.3.6.2.2-.1.3-.4.2-.6-.1-.2-.4-.3-.6-.2,0,0,0,0,0,0Z"/>
    <path class="st1" d="M14.6,18.4c.4-.6.2-1.4-.4-1.8-.6-.4-1.4-.2-1.8.4s-.2,1.4.4,1.8c.2.1.5.2.7.2.5,0,.9-.2,1.1-.6Z"/>
    <path class="st1" d="M11.9,20.5c-.3-.2-.7-.1-.9.2-.2.3-.1.7.2.9.3.2.7.1.9-.2.2-.3.1-.7-.2-.9Z"/>
    <path class="st1" d="M15,23c-.3,0-.6.2-.6.5s.2.6.5.6c.3,0,.6-.2.6-.5,0-.3-.2-.6-.5-.6Z"/>
    <path class="st1" d="M15,19.6c-.4,0-.8.3-.8.7,0,.4.3.8.7.8.4,0,.8-.3.8-.7,0-.4-.3-.8-.7-.8Z"/>
    <path class="st1" d="M18.2,20.4c-.3.2-.5.6-.3.9s.6.5.9.3c.3-.2.5-.6.3-.9-.2-.3-.6-.5-.9-.3Z"/>
  </g>
</svg>