<?xml version="1.0" encoding="UTF-8"?>
<svg id="Layer_1" xmlns="http://www.w3.org/2000/svg" version="1.1" viewBox="0 0 30 30">
  <!-- Generator: Adobe Illustrator 29.6.0, SVG Export Plug-In . SVG Version: 2.1.1 Build 207)  -->
  <defs>
    <style>
      .st0 {
        fill: #fff;
      }
    </style>
  </defs>
  <path d="M14,0c12-.7,20.1,12.1,13.8,22.7-5.9,10.1-20.7,9.6-26-.9S3.5.7,14,0Z"/>
  <polygon class="st0" points="7.7 23.2 10.5 18.3 13.3 13.5 16.1 8.7 16.5 7.9 16.7 8.7 17.6 11.8 16.6 13.5 13.8 18.3 11.1 23.2 14.4 23.2 17.2 18.3 18.6 15.8 19.3 18.3 20.6 23.2 23.6 23.2 22.3 18.3 21 13.5 20.7 12.3 22.8 8.7 19.7 8.7 19.6 8.3 18.6 4.3 18.4 3.8 15.5 3.8 15.5 3.9 12.7 8.7 9.9 13.5 7.2 18.3 4.4 23.2 7.7 23.2"/>
</svg>