<svg width="30" height="30" viewBox="0 0 30 30" fill="none" xmlns="http://www.w3.org/2000/svg">
<path fill-rule="evenodd" clip-rule="evenodd" d="M15 30C23.2852 30 30 23.2843 30 15C30 6.71573 23.2852 0 15 0C6.71484 0 0 6.71573 0 15C0 23.2843 6.71484 30 15 30ZM17.375 10.8947C21.1992 9.10129 24.2383 8.39816 24.7773 9.32529C25.3125 10.2506 23.1914 12.536 19.7344 14.9612C23.2031 17.3719 25.332 19.6494 24.8008 20.577C24.457 21.1758 23.0664 21.1 21.0977 20.4935C20.9609 20.726 20.7188 20.8818 20.4375 20.8818C20.0117 20.8818 19.668 20.5258 19.668 20.0866L19.6719 20.0011C18.9531 19.7282 18.1836 19.4024 17.3789 19.029C17.0156 23.2457 16.0977 26.2361 15.0273 26.2361C13.9609 26.2361 13.0469 23.2549 12.6797 19.0491C8.85938 20.8411 5.81641 21.5438 5.28125 20.6171C4.94531 20.0371 5.65234 18.9251 7.07422 17.5801C7.05859 17.5157 7.05078 17.4496 7.05078 17.3832C7.05078 16.9441 7.39453 16.588 7.82031 16.588C7.92188 16.588 8.02734 16.6102 8.125 16.6531C8.77344 16.1142 9.51172 15.5517 10.3242 14.9815C6.85547 12.5707 4.72266 10.2942 5.25781 9.36551C5.78906 8.4368 8.83984 9.1312 12.6797 10.9138C12.7617 9.96884 12.8711 9.08551 13.0039 8.28357C12.8984 8.2088 12.8164 8.11035 12.7578 7.99649C12.6992 7.8826 12.668 7.75656 12.668 7.62885C12.668 7.24445 12.9336 6.9238 13.2852 6.84976C13.7383 4.90286 14.3516 3.70581 15.0273 3.70581C16.0977 3.70581 17.0117 6.68802 17.375 10.8947ZM13.4852 8.42234C13.3521 9.28216 13.2577 10.2184 13.1914 11.1551C13.7872 11.4415 14.3998 11.752 15.0226 12.0863C15.6576 11.742 16.2825 11.4217 16.8896 11.1274C16.7148 9.32427 16.484 7.99965 16.484 7.99965C15.9506 4.978 15.2037 4.34128 15.2037 4.34128C15.0447 4.12926 14.8857 4.2883 14.8857 4.2883C14.2453 5.03042 13.9251 6.40891 13.9251 6.40891C13.8749 6.56997 13.8276 6.74021 13.7828 6.91717C14.0352 7.04765 14.2084 7.31712 14.2084 7.62859C14.2084 8.05206 13.8884 8.39792 13.4852 8.42234ZM16.2925 17.1518C16.0492 17.2927 15.8072 17.4304 15.5664 17.5648C16.1248 17.8762 16.4663 18.0562 16.4663 18.0562C16.6347 18.1344 16.7997 18.2103 16.9614 18.284C17.0114 17.6704 17.0391 17.1341 17.0541 16.7015C16.8038 16.8523 16.55 17.0024 16.2925 17.1518ZM16.0064 23.9567C16.5086 22.0927 16.7759 20.2769 16.9174 18.8111C16.3068 18.5186 15.6784 18.1999 15.0389 17.8569C14.4039 18.2013 13.7791 18.5215 13.1719 18.8158C13.7118 24.0693 14.5758 25.3697 14.882 25.6721C14.9153 25.705 14.9591 25.7251 15.0057 25.7289C15.0523 25.7327 15.0988 25.7199 15.1369 25.6927C15.6098 25.358 16.0064 23.9567 16.0064 23.9567ZM14.4652 17.5465C14.0284 17.7797 13.5746 18.0161 13.1131 18.2477C13.0981 18.0864 13.0832 17.9218 13.0683 17.7538C13.0683 17.7538 13.0551 17.3697 13.0469 16.7327C13.2848 16.8746 13.5261 17.0156 13.7708 17.1558C14.0034 17.2889 14.2349 17.4191 14.4652 17.5465ZM12.5297 16.4202C12.5501 17.1313 12.5857 17.8216 12.634 18.4849C11.0628 19.2519 9.44571 19.9329 8.17317 20.2227C8.17317 20.2227 6.82021 20.6371 5.85712 20.4553C5.85712 20.4553 5.6395 20.3965 5.74254 20.1521L5.74333 20.1494C5.74333 20.1494 5.87123 19.4502 7.35915 18.0214C7.49032 18.123 7.65153 18.1782 7.81746 18.1782C8.24194 18.1782 8.58611 17.8222 8.58611 17.383C8.58632 17.256 8.55678 17.1307 8.49987 17.0171C8.88291 16.7059 9.71216 16.0464 10.7698 15.2883C11.3271 15.6652 11.9137 16.0425 12.5297 16.4202ZM7.04919 11.6706C7.93769 12.6265 9.33691 13.6844 10.7878 14.6597C11.3413 14.2818 11.922 13.905 12.5298 13.5295C12.5503 12.8135 12.5858 12.1186 12.6349 11.451C10.9762 10.7013 9.7046 10.2399 9.7046 10.2399C6.81802 9.19962 5.89459 9.53102 5.89459 9.53102C5.62948 9.5644 5.6894 9.78224 5.6894 9.78224C6.01454 10.7074 7.04919 11.6706 7.04919 11.6706ZM11.2383 14.9581C11.6426 14.6758 12.0726 14.3852 12.5181 14.0982C12.5132 14.3862 12.5107 14.6772 12.5107 14.9711C12.5107 15.2409 12.5128 15.5083 12.517 15.7735C12.0982 15.5137 11.668 15.2403 11.2383 14.9581ZM13.0859 13.1922C13.3102 13.0575 13.5373 12.9235 13.7675 12.7902C14.0217 12.6431 14.2747 12.4994 14.5265 12.359C14.0601 12.12 13.5984 11.8959 13.156 11.6895C13.1256 12.1985 13.1027 12.7035 13.0859 13.1922ZM18.877 14.9498C18.7283 15.0558 18.5755 15.1636 18.4188 15.2734C18.4188 15.2734 18.0907 15.4789 17.5402 15.8073C17.5447 15.531 17.5469 15.2523 17.547 14.9711C17.547 14.6691 17.5444 14.3699 17.5391 14.0736C17.9096 14.3037 18.3652 14.5975 18.877 14.9498ZM21.1953 19.9592C23.1601 20.5757 23.9579 20.5036 24.2366 20.4268C24.2819 20.4142 24.3212 20.386 24.3476 20.3471C24.374 20.3083 24.3858 20.2613 24.3809 20.2146C24.328 19.6376 23.3074 18.5966 23.3074 18.5966C21.9461 17.2376 20.5107 16.1051 19.3123 15.2539C18.7476 15.6401 18.1507 16.0285 17.5268 16.4142C17.5063 17.1296 17.4709 17.8238 17.4219 18.4908C18.3697 18.9127 19.1918 19.248 19.9041 19.5136C19.9739 19.4435 20.0569 19.3878 20.1482 19.3497C20.2396 19.3117 20.3375 19.292 20.4365 19.2918C20.8191 19.2918 21.1361 19.5808 21.1953 19.9592ZM16.9331 11.635C16.3731 11.9004 15.8919 12.1469 15.5078 12.3518C15.7647 12.4932 16.0229 12.6384 16.2823 12.7874C16.539 12.9347 16.7918 13.0826 17.0408 13.2311C17.0147 12.6809 16.9769 12.1433 16.9331 11.635ZM17.0705 16.0853C16.5056 16.4168 15.7971 16.8231 15.0116 17.2522C14.4547 16.936 13.7758 16.5417 13.0438 16.0967C13.0408 15.4408 13.0454 14.6325 13.0683 13.751C13.5329 13.4638 14.0091 13.1853 14.4862 12.928C14.4862 12.928 14.6759 12.8115 15.0218 12.6182C15.531 12.8892 16.0394 13.1767 16.5278 13.4768C16.5278 13.4768 16.7238 13.5826 17.0648 13.7852C17.0833 14.3647 17.0872 14.9518 17.07 15.5277C17.07 15.5277 17.0751 15.7274 17.0705 16.0853ZM15.0025 13.6723C14.7403 13.6723 14.4841 13.7501 14.2661 13.8957C14.0481 14.0414 13.8782 14.2484 13.7779 14.4906C13.6776 14.7328 13.6514 14.9993 13.7025 15.2564C13.7537 15.5135 13.8799 15.7496 14.0653 15.935C14.2507 16.1204 14.4868 16.2466 14.7439 16.2977C15.0011 16.3488 15.2676 16.3226 15.5097 16.2222C15.7519 16.1219 15.9589 15.952 16.1045 15.734C16.2502 15.516 16.3279 15.2598 16.3279 14.9976C16.3279 14.8236 16.2936 14.6512 16.227 14.4904C16.1604 14.3296 16.0627 14.1835 15.9397 14.0605C15.8166 13.9374 15.6705 13.8398 15.5097 13.7732C15.3489 13.7066 15.1765 13.6723 15.0025 13.6723ZM17.418 11.4095C17.4684 12.0877 17.5049 12.795 17.5258 13.523C18.142 13.9008 18.7289 14.278 19.2865 14.6546C23.5623 11.5537 24.2534 10.1532 24.3625 9.7378C24.3744 9.69245 24.3698 9.64437 24.3496 9.60207C24.3294 9.55976 24.2949 9.52596 24.2522 9.50663C23.7252 9.26539 22.314 9.62479 22.314 9.62479C20.4551 10.1233 18.7551 10.799 17.418 11.4095Z" fill="black"/>
</svg>
