<svg width="30" height="30" viewBox="0 0 30 30" fill="none" xmlns="http://www.w3.org/2000/svg">
<path fill-rule="evenodd" clip-rule="evenodd" d="M15 30.0002C23.2852 30.0002 30 23.2845 30 15.0002C30 6.71594 23.2852 0.000213623 15 0.000213623C6.71484 0.000213623 0 6.71594 0 15.0002C0 23.2845 6.71484 30.0002 15 30.0002ZM10.5938 22.2539H7.51172C7.04297 22.2539 6.74219 22.2539 6.54297 22.2057C6.46875 22.1877 6.40625 22.1631 6.35156 22.1292C6.14062 21.9928 6.01172 21.7667 5.99609 21.5172C5.98438 21.2873 6.14453 21.0066 6.46484 20.4453L14.0664 7.04391C14.3906 6.47482 14.5547 6.19028 14.7617 6.08505C14.9844 5.97202 15.25 5.97202 15.4688 6.08505C15.6758 6.19028 15.8398 6.47482 16.1641 7.04391L17.7266 9.77237L17.7344 9.78629C18.0859 10.3968 18.2617 10.7064 18.3398 11.0313C18.3945 11.2518 18.4141 11.4799 18.3984 11.7061C18.3906 11.8438 18.3711 11.9807 18.3398 12.1149C18.2812 12.3541 18.1719 12.585 17.9805 12.9337L17.7305 13.3739L13.7383 20.4336L13.7266 20.4521L13.7031 20.4893C13.3672 21.08 13.1953 21.3841 12.9492 21.6146C12.6797 21.8719 12.3594 22.0589 12.0039 22.1643C11.6797 22.2539 11.3164 22.2539 10.5938 22.2539ZM18.3672 22.2539H22.7812C23.1953 22.2539 23.4805 22.2539 23.6836 22.2202C23.7969 22.2013 23.8828 22.1717 23.9531 22.1254C24.1641 21.989 24.2969 21.7589 24.3086 21.5096C24.3203 21.2871 24.1641 21.0173 23.8555 20.4886L23.8242 20.4337L21.6133 16.6529L21.5898 16.6095L21.5781 16.5917C21.2773 16.0789 21.1172 15.8187 20.9219 15.7174C20.8086 15.6605 20.6875 15.6322 20.5664 15.6326C20.4453 15.633 20.3242 15.6613 20.2148 15.7174C20.0117 15.8226 19.8477 16.0994 19.5273 16.6568L17.3242 20.4376L17.3164 20.4506C16.9922 21.0072 16.832 21.2852 16.8438 21.5134C16.8594 21.7629 16.9883 21.9928 17.1992 22.1292C17.3906 22.2539 17.7188 22.2539 18.3672 22.2539Z" fill="#E84142"/>
</svg>
