<svg width="30" height="31" viewBox="0 0 30 31" fill="none" xmlns="http://www.w3.org/2000/svg">
<path d="M18.9304 30.4776C26.9231 28.3608 31.6427 20.1538 29.472 12.1466C27.3013 4.13944 19.0623 -0.635657 11.0696 1.48112C3.07692 3.5979 -1.64272 11.805 0.527981 19.8121C2.69868 27.8193 10.9377 32.5944 18.9304 30.4776Z" fill="#91C158"/>
<path fill-rule="evenodd" clip-rule="evenodd" d="M8.85303 12.3482L8.86226 12.3458C8.83877 12.3938 8.84231 12.3825 8.85303 12.3482ZM8.94257 12.325L8.91928 12.2269C8.89208 12.284 8.87387 12.3221 8.86226 12.3458C8.8891 12.339 8.91587 12.3321 8.94257 12.325ZM8.94257 12.325C8.98474 12.5013 9.02963 12.6824 9.07452 12.8635C9.12778 13.0783 9.18105 13.2932 9.22976 13.5C9.23193 13.5837 9.28432 13.5974 9.35273 13.5599C9.41352 13.5432 9.47563 13.5258 9.53893 13.508C9.79842 13.4353 10.0781 13.3569 10.3694 13.2995C10.7318 13.2281 11.0665 13.4266 11.1436 13.7239C11.6788 15.6378 12.1616 17.538 12.6445 19.4382C12.7376 19.6843 12.6051 19.9268 12.2951 20.0119C12.0374 20.1107 11.7274 20.1959 11.4516 20.2622C11.349 20.3185 11.3148 20.3373 11.3351 20.4535C11.378 20.7696 11.4049 21.1369 11.4317 21.5042C11.4339 21.5879 11.4401 21.6588 11.4462 21.7297C11.4524 21.8006 11.4586 21.8715 11.4607 21.9553C12.3908 21.6999 13.2866 21.4633 14.1825 21.2266C14.2038 21.2647 14.2071 21.298 14.2099 21.3256C14.2118 21.3452 14.2135 21.3618 14.221 21.3753C14.341 21.9887 14.5133 22.6159 14.6857 23.243C14.6878 23.3267 14.706 23.3592 14.8268 23.3354C15.2052 23.2128 15.5837 23.0901 15.9803 22.9999C16.0867 22.979 16.0853 22.9513 16.0819 22.8877C16.0815 22.8791 16.081 22.8699 16.0807 22.8599C16.0331 22.695 15.994 22.5254 15.9549 22.3558C15.9159 22.1862 15.8768 22.0167 15.8291 21.8517C15.7815 21.6868 15.7424 21.5172 15.7034 21.3477C15.6643 21.1781 15.6252 21.0085 15.5776 20.8436C15.9218 20.7397 16.2318 20.6545 16.5418 20.5694C16.6042 20.5658 16.6133 20.5914 16.6272 20.6303C16.6325 20.6454 16.6386 20.6624 16.6488 20.6806C16.7687 21.294 16.9411 21.9211 17.1134 22.5483C17.1156 22.632 17.1338 22.6645 17.2546 22.6407C17.4267 22.5887 17.6119 22.5402 17.7971 22.4917C17.9823 22.4432 18.1675 22.3947 18.3396 22.3427C18.5381 22.3151 18.53 22.2842 18.4951 22.1513L18.4903 22.1327C18.4132 21.8354 18.3316 21.5299 18.25 21.2245C18.1683 20.919 18.0867 20.6136 18.0096 20.3162C17.9893 20.2001 18.0395 20.1301 18.1603 20.1063C18.899 19.8285 19.6195 19.5182 20.2832 19.0268C20.7941 18.6617 21.1457 18.1717 21.2855 17.5432C21.3933 17.0171 21.3461 16.5336 21.2283 16.0039C21.1309 15.5903 20.9469 15.1819 20.6784 14.8621C20.287 14.4825 19.8133 14.2753 19.2392 14.2082C19.1435 14.197 19.0523 14.1939 18.9612 14.1908C18.87 14.1877 18.7789 14.1847 18.6832 14.1735C18.7233 14.1515 18.7454 14.1248 18.7637 14.1027C18.7766 14.0871 18.7877 14.0737 18.8018 14.066C19.0209 13.8184 19.2218 13.5385 19.3179 13.231C19.4461 12.8211 19.401 12.4213 19.3036 12.0078C19.1494 11.4131 18.8243 10.9123 18.2436 10.594C17.8223 10.4005 17.369 10.3095 16.9178 10.3023L15.5162 10.4342C15.3954 10.458 15.343 10.4443 15.3227 10.3281C15.3002 10.1282 15.2434 9.94706 15.1867 9.76592C15.0711 9.31992 14.9555 8.87391 14.8217 8.39544C14.8046 8.40482 14.7915 8.40139 14.7784 8.39796C14.7653 8.39453 14.7522 8.3911 14.7351 8.40048C14.5495 8.44741 14.3736 8.49689 14.2018 8.54521C13.9748 8.60906 13.7549 8.67091 13.5292 8.72223C13.4426 8.72727 13.4266 8.77851 13.463 8.84346L13.5786 9.28947C13.6782 9.7867 13.7938 10.2327 13.9276 10.7112C13.9223 10.7283 13.9189 10.749 13.9156 10.7696C13.909 10.811 13.9023 10.8524 13.8795 10.8649C13.7245 10.9075 13.561 10.9547 13.3974 11.002C13.2339 11.0492 13.0703 11.0965 12.9153 11.139C12.9131 11.0553 12.8949 11.0228 12.8767 10.9904C12.7997 10.693 12.718 10.3876 12.6364 10.0821C12.5548 9.77668 12.4732 9.47122 12.3961 9.17389C12.3939 9.09017 12.3757 9.0577 12.2549 9.0815C11.8765 9.20415 11.5323 9.30804 11.1357 9.39821C11.0149 9.42201 10.9988 9.47325 11.0192 9.58944C11.1054 9.90301 11.187 10.2085 11.2686 10.5139C11.3502 10.8194 11.4319 11.1248 11.518 11.4384C11.5384 11.5546 11.5224 11.6058 11.4016 11.6296C11.1862 11.6841 10.9753 11.7467 10.7644 11.8093C10.5536 11.8719 10.3427 11.9344 10.1273 11.9889C9.9119 12.0434 9.70103 12.106 9.49017 12.1685C9.30861 12.2224 9.12704 12.2763 8.94257 12.325ZM15.1235 19.4417C15.1574 19.4231 15.2094 19.4367 15.2094 19.4367C15.3057 19.4102 15.4032 19.3841 15.5015 19.3578C16.0312 19.216 16.5839 19.068 17.0854 18.8283C17.5104 18.6372 17.8834 18.4325 18.1844 18.0989C18.7206 17.552 18.5411 16.5977 17.8795 16.2869C17.5657 16.1222 17.2042 16.11 16.8428 16.0978C16.0752 16.1102 15.3138 16.3574 14.5835 16.5944L14.5173 16.6159C14.4081 16.6374 14.4134 16.6661 14.4305 16.7583L14.4357 16.787C14.492 16.9667 14.5352 17.143 14.5785 17.3193C14.6217 17.4956 14.665 17.6719 14.7212 17.8516C14.7878 18.151 14.8653 18.4444 14.9447 18.7446C15.0046 18.9712 15.0655 19.2018 15.1235 19.4417ZM16.3931 14.2253C16.2754 14.3321 16.1237 14.4575 16.0558 14.4947C15.6619 14.7109 15.2931 14.8468 14.9121 14.9872C14.7679 15.0404 14.6219 15.0941 14.4721 15.1532C14.3952 15.1743 14.3268 15.1908 14.2583 15.2073C14.1899 15.2238 14.1215 15.2402 14.0446 15.2614C13.9587 15.2664 13.9067 15.2527 13.9045 15.1696C13.7292 14.3806 13.538 13.6424 13.3287 12.872C13.3085 12.7566 13.3244 12.7057 13.4443 12.682C13.5597 12.6522 13.6731 12.6218 13.7852 12.5917C14.2379 12.4703 14.6708 12.3542 15.1384 12.3002C15.5161 12.2616 15.9299 12.2874 16.262 12.4845C16.9082 12.8465 16.9658 13.7423 16.3931 14.2253Z" fill="white"/>
</svg>
