<svg width="30" height="30" viewBox="0 0 30 30" fill="none" xmlns="http://www.w3.org/2000/svg">
<path fill-rule="evenodd" clip-rule="evenodd" d="M30 15.0002C30 6.71536 23.2852 0.000213623 15 0.000213623C6.71484 0.000213623 0 6.71536 0 15.0002C0 23.2851 6.71484 30.0002 15 30.0002C23.2852 30.0002 30 23.2851 30 15.0002ZM20.7305 11.6271L20.7422 14.1183L17.1172 16.2458V20.5112L15.0117 21.7451L12.9062 20.5112V16.2458L9.27734 14.1183V11.6271L11.3945 10.3815L14.9961 12.5194L18.625 10.3815L20.7305 11.6271ZM9.27734 7.37332L15 4.00021L20.7305 7.37332L18.625 8.6189L15 6.48105L11.3828 8.6189L9.27734 7.37332ZM7.75391 15.0002L7.76562 19.2553L11.3828 21.3828V23.874L5.64844 20.5125V13.756L7.75391 15.0002ZM7.75391 10.7451V13.2247L5.64844 11.9791V9.49957L7.75391 8.254L9.87109 9.49957L7.75391 10.7451ZM12.8906 9.49957L14.9961 8.254L17.1133 9.49957L14.9961 10.7451L12.8906 9.49957ZM9.27734 15.8822L11.3828 17.1277V19.6073L9.27734 18.3733V15.8822ZM12.8945 22.2751L15 23.5207L17.1133 22.2751V24.7546L15 26.0002L12.8945 24.7546V22.2751ZM20.1328 9.49957L22.2383 8.254L24.3555 9.49957V11.9791L22.2383 13.2247V10.7451L20.1328 9.49957ZM22.25 15.0002L24.3555 13.7546V20.5112L18.625 23.8727V21.3815L22.2383 19.2553L22.25 15.0002ZM18.6211 19.6073L20.7266 18.3733V15.8822L18.6211 17.1277V19.6073Z" fill="#F0B90B"/>
</svg>
