<svg width="30" height="30" viewBox="0 0 30 30" fill="none" xmlns="http://www.w3.org/2000/svg">
<path d="M11.0696 29.4982C19.0623 31.615 27.3013 26.8399 29.472 18.8328C31.6427 10.8256 26.9231 2.61853 18.9304 0.501751C10.9377 -1.61503 2.69868 3.16007 0.527981 11.1672C-1.64272 19.1744 3.07692 27.3815 11.0696 29.4982Z" fill="#F4922F"/>
<path fill-rule="evenodd" clip-rule="evenodd" d="M11.641 8.68061L11.6499 8.6832C11.6067 8.71383 11.6152 8.70558 11.641 8.68061ZM11.7275 8.70532L11.7561 8.60666C11.7053 8.6434 11.6713 8.66807 11.6499 8.6832C11.6758 8.69071 11.7016 8.69808 11.7275 8.70532ZM11.7275 8.70532C11.6765 8.88275 11.6253 9.06587 11.5742 9.24899C11.5135 9.46626 11.4528 9.68353 11.3923 9.89132C11.353 9.96658 11.3903 10.0052 11.466 10.0065C11.5252 10.0224 11.5858 10.0383 11.6476 10.0546C11.901 10.1212 12.1739 10.1929 12.4464 10.2892C12.7854 10.4089 12.9688 10.7538 12.8877 11.0562C12.3982 13.0221 11.8714 14.9494 11.3447 16.8767C11.3021 17.1418 11.0721 17.2897 10.7703 17.2086C10.5058 17.166 10.204 17.0849 9.94015 17.0044C9.82648 17.0024 9.78859 17.0018 9.74869 17.115C9.62967 17.4167 9.47208 17.7557 9.31449 18.0947C9.27526 18.17 9.24567 18.2359 9.21608 18.3018C9.18649 18.3678 9.1569 18.4337 9.11768 18.509C10.023 18.7524 10.8904 18.9952 11.7578 19.2379C11.757 19.2824 11.7435 19.3136 11.7322 19.3395C11.7243 19.3578 11.7175 19.3734 11.7172 19.3891C11.5171 19.9932 11.3541 20.6358 11.1912 21.2785C11.1519 21.3537 11.1513 21.3917 11.2643 21.4316C11.6418 21.5141 12.0194 21.5965 12.3962 21.7169C12.4958 21.7521 12.5081 21.7268 12.5365 21.6688C12.5403 21.661 12.5445 21.6526 12.5491 21.6436C12.59 21.4735 12.6404 21.3035 12.6908 21.1335C12.7412 20.9635 12.7915 20.7935 12.8324 20.6234C12.8733 20.4532 12.9237 20.2832 12.9741 20.1132C13.0245 19.9432 13.0749 19.7732 13.1158 19.6031C13.4554 19.6849 13.7572 19.766 14.059 19.8472C14.1131 19.8755 14.1082 19.9028 14.1007 19.9442C14.0978 19.9603 14.0945 19.9785 14.0942 19.9997C13.894 20.6037 13.731 21.2464 13.5681 21.889C13.5289 21.9643 13.5282 22.0022 13.6412 22.0422C13.811 22.083 13.9901 22.1336 14.1692 22.1841C14.3483 22.2347 14.5275 22.2853 14.6974 22.3262C14.8774 22.4019 14.8857 22.3704 14.9217 22.2351L14.9267 22.2162C15.0078 21.9139 15.0891 21.6022 15.1704 21.2904C15.2517 20.9786 15.3331 20.6665 15.4142 20.3641C15.4541 20.2509 15.5306 20.2143 15.6436 20.2542C16.3993 20.3811 17.1558 20.4701 17.9534 20.37C18.561 20.3045 19.0961 20.048 19.5216 19.5617C19.87 19.1501 20.0675 18.6979 20.2284 18.1691C20.3494 17.7535 20.3954 17.2987 20.327 16.8798C20.1848 16.3458 19.8891 15.9231 19.4404 15.5736C19.3657 15.5154 19.2907 15.4666 19.2158 15.4179C19.1409 15.3691 19.0659 15.3203 18.9911 15.2621C19.0355 15.2629 19.0671 15.2504 19.0933 15.24C19.1119 15.2327 19.1277 15.2265 19.1434 15.2268C19.4485 15.1181 19.7543 14.9715 19.9856 14.7477C20.2941 14.4493 20.4523 14.0723 20.5734 13.6567C20.7357 13.052 20.7085 12.4441 20.3776 11.8688C20.119 11.4847 19.7834 11.1751 19.4085 10.9409L18.1683 10.3499C18.0553 10.31 18.0181 10.2714 18.058 10.1582C18.1371 9.96971 18.1783 9.78058 18.2196 9.59145C18.3413 9.13792 18.463 8.6844 18.5854 8.19292C18.5664 8.19259 18.5571 8.18294 18.5478 8.17328C18.5385 8.16363 18.5292 8.15398 18.5103 8.15365C18.3316 8.1015 18.1598 8.05651 17.992 8.01256C17.7703 7.9545 17.5556 7.89826 17.3411 7.82973C17.266 7.79047 17.2274 7.82777 17.2261 7.90368L17.1044 8.35721C16.9441 8.84804 16.8224 9.30156 16.7 9.79305C16.6872 9.80548 16.6742 9.82213 16.6613 9.83878C16.6354 9.87209 16.6096 9.90539 16.5843 9.90496C16.4335 9.86438 16.2731 9.82365 16.1127 9.78291C15.9524 9.74218 15.792 9.70144 15.6411 9.66087C15.6804 9.58561 15.681 9.54765 15.6817 9.5097C15.7629 9.20735 15.8442 8.89551 15.9255 8.58367C16.0068 8.27183 16.0881 7.95999 16.1692 7.65764C16.2085 7.58238 16.2091 7.54442 16.0961 7.5045C15.7186 7.42205 15.3789 7.34025 15.0021 7.21984C14.8891 7.17993 14.8505 7.21723 14.8106 7.33045C14.7291 7.65174 14.6478 7.96354 14.5665 8.27534C14.4852 8.58719 14.4039 8.89913 14.3224 9.22046C14.2825 9.33368 14.244 9.37099 14.131 9.33107C13.9236 9.27054 13.716 9.21949 13.5085 9.16845C13.3009 9.11741 13.0934 9.06637 12.886 9.00584C12.6786 8.94531 12.4711 8.89426 12.2635 8.84322C12.0848 8.79927 11.9061 8.75532 11.7275 8.70532ZM13.4082 18.0884C13.4461 18.089 13.4833 18.1276 13.4833 18.1276C13.5778 18.1531 13.6733 18.1794 13.7695 18.206C14.2876 18.3491 14.8284 18.4985 15.3711 18.5399C15.825 18.5857 16.2418 18.5929 16.6613 18.4482C17.3852 18.2329 17.705 17.2892 17.299 16.6747C17.1149 16.3678 16.8152 16.1728 16.5154 15.9778C15.8599 15.5979 15.0936 15.4308 14.3587 15.2705L14.292 15.256C14.1891 15.2196 14.1794 15.2479 14.1483 15.3389L14.1385 15.3672C14.0972 15.5564 14.0467 15.7358 13.9962 15.9153C13.9456 16.0948 13.8951 16.2743 13.8538 16.4634C13.7621 16.7647 13.6827 17.0662 13.6015 17.3747C13.5401 17.6076 13.4777 17.8446 13.4082 18.0884ZM17.0773 14.2033C16.925 14.2387 16.7349 14.2734 16.6591 14.2721C16.2194 14.2645 15.8406 14.198 15.4493 14.1294C15.3011 14.1034 15.1511 14.0771 14.9954 14.0535C14.92 14.0332 14.854 14.0131 14.788 13.993C14.7221 13.9729 14.6561 13.9527 14.5806 13.9325C14.5055 13.8932 14.4683 13.8546 14.5075 13.7793C14.749 12.9861 14.9518 12.2303 15.1553 11.4364C15.1952 11.3232 15.2338 11.2859 15.3468 11.3258C15.4591 11.3579 15.5699 11.3885 15.6796 11.4187C16.1222 11.5408 16.5454 11.6575 16.9673 11.8474C17.3056 12.0051 17.6426 12.2387 17.826 12.5836C18.1935 13.2354 17.7998 14.0639 17.0773 14.2033Z" fill="white"/>
</svg>
