<svg width="30" height="30" viewBox="0 0 30 30" fill="none" xmlns="http://www.w3.org/2000/svg">
<path d="M15 0C23.285 0 30 6.71632 30 15C30 23.285 23.285 30 15 30C6.71632 30 0 23.2844 0 15C0 6.71632 6.71632 0 15 0Z" fill="#F7AE33"/>
<path d="M15.703 15.891H20.6437C20.749 15.891 20.7988 15.891 20.8064 15.7573C20.8468 15.2706 20.8468 14.7811 20.8064 14.2939C20.8064 14.1993 20.7578 14.1602 20.6519 14.1602H10.819C10.6973 14.1602 10.6646 14.1993 10.6646 14.3097V15.7103C10.6646 15.891 10.6646 15.891 10.8594 15.891H15.703ZM20.2546 12.5234C20.2687 12.4877 20.2687 12.4486 20.2546 12.4135C20.1721 12.2395 20.0744 12.0735 19.9609 11.9177C19.79 11.6515 19.5888 11.4061 19.3594 11.1858C19.2511 11.0526 19.1259 10.9331 18.9855 10.8317C18.2822 10.2521 17.4461 9.84188 16.5473 9.63565C16.0939 9.53707 15.6304 9.49005 15.1659 9.49401H10.8021C10.6804 9.49401 10.664 9.54104 10.664 9.64358V12.4367C10.664 12.5546 10.664 12.5863 10.8185 12.5863H20.1961C20.1961 12.5863 20.2774 12.5704 20.2938 12.5234H20.254H20.2546ZM20.2546 17.5278C20.1165 17.5131 19.9773 17.5131 19.8392 17.5278H10.8272C10.7055 17.5278 10.6646 17.5278 10.6646 17.6853V20.4161C10.6646 20.5419 10.6646 20.5736 10.8272 20.5736H14.988C15.1869 20.5883 15.3859 20.5747 15.5807 20.5345C16.1846 20.4926 16.7784 20.3657 17.3448 20.1566C17.5508 20.0875 17.7497 19.9974 17.9376 19.8892H17.9943C18.9697 19.398 19.7619 18.6263 20.2616 17.6791C20.2616 17.6791 20.3184 17.5601 20.2546 17.5289V17.5278ZM9.03152 21.9894V21.9424V20.109V19.4875V17.6383C9.03152 17.5357 9.03152 17.5204 8.90162 17.5204H7.13809C7.04037 17.5204 7 17.5204 7 17.3947V15.8995H8.88524C8.99056 15.8995 9.03152 15.8995 9.03152 15.7658V14.2865C9.03152 14.1919 9.03152 14.1687 8.90162 14.1687H7.13809C7.04037 14.1687 7 14.1687 7 14.0429V12.6582C7 12.5716 7 12.5483 7.1299 12.5483H8.87705C8.99875 12.5483 9.03152 12.5483 9.03152 12.3988V8.1575C9.03152 8.03173 9.03152 8 9.19418 8H15.2887C15.7311 8.017 16.1705 8.06402 16.6053 8.14164C17.5011 8.30198 18.3618 8.61188 19.1487 9.05436C19.6707 9.35181 20.151 9.711 20.5788 10.1246C20.9006 10.4481 21.1908 10.7982 21.4482 11.171C21.7039 11.5489 21.9163 11.9529 22.0831 12.375C22.1036 12.4849 22.2124 12.5591 22.3259 12.5404H23.7805C23.9672 12.5404 23.9672 12.5404 23.9754 12.7138V14.0044C23.9754 14.1301 23.9268 14.1619 23.7963 14.1619H22.6747C22.5611 14.1619 22.5284 14.1619 22.5366 14.3035C22.581 14.7828 22.581 15.2638 22.5366 15.7431C22.5366 15.8768 22.5366 15.8927 22.6916 15.8927H23.9748C24.0315 15.9635 23.9748 16.0343 23.9748 16.1057C23.983 16.197 23.983 16.2893 23.9748 16.3805V17.3329C23.9748 17.4666 23.9344 17.5063 23.8121 17.5063H22.2762C22.1691 17.4864 22.065 17.5527 22.0404 17.6558C21.6747 18.5765 21.0896 19.402 20.3336 20.0637C20.0574 20.3045 19.7672 20.5311 19.4641 20.7402C19.1388 20.9215 18.8223 21.1101 18.4887 21.2597C17.8749 21.5271 17.2313 21.7243 16.5707 21.8495C15.9435 21.9583 15.3075 22.0076 14.6691 21.9991H9.02918V21.9911L9.03152 21.9894Z" fill="#FEFEFD"/>
<defs>
<linearGradient id="paint0_linear_1:7800" x1="6.5" y1="4" x2="23" y2="30" gradientUnits="userSpaceOnUse">
<stop stop-color="#F7AE33"/>
<stop offset="1" stop-color="#F9C359"/>
</linearGradient>
</defs>
</svg>
