<svg width="30" height="31" viewBox="0 0 30 31" fill="none" xmlns="http://www.w3.org/2000/svg">
<path d="M14.7991 30.9806C22.9724 30.9806 29.5982 24.2649 29.5982 15.9806C29.5982 7.69632 22.9724 0.980591 14.7991 0.980591C6.62579 0.980591 0 7.69632 0 15.9806C0 24.2649 6.62579 30.9806 14.7991 30.9806Z" fill="#6282E7"/>
<path d="M14.9698 6.99048C14.9698 7.04996 14.9698 7.10945 14.9698 7.16894C14.9698 9.36993 14.9698 11.6007 14.9698 13.8017C14.9698 13.8314 14.9698 13.8909 14.9698 13.9206C14.9698 13.9504 14.939 13.9801 14.9083 13.9801C14.693 14.0693 14.5084 14.1586 14.2931 14.2478C14.0163 14.3668 13.7088 14.4857 13.4319 14.6345C13.0936 14.7832 12.7553 14.9319 12.417 15.0806C12.1401 15.1996 11.8633 15.3186 11.5865 15.4375C11.2482 15.5862 10.9099 15.735 10.5715 15.8837C10.2947 16.0026 10.0179 16.1216 9.71033 16.2703C9.49503 16.3596 9.24898 16.4785 9.03368 16.5678C9.00292 16.5678 9.00292 16.5975 8.97216 16.5678C8.97216 16.5678 8.97216 16.5678 8.94141 16.5678C9.03368 16.419 9.12595 16.3001 9.21822 16.1514C9.71033 15.3483 10.2332 14.5452 10.7253 13.7422C11.2482 12.8796 11.8018 12.0171 12.3247 11.1545C12.8168 10.3515 13.3089 9.54839 13.801 8.77507C14.1701 8.1802 14.5392 7.61508 14.8775 7.02022C14.939 7.02022 14.939 6.99048 14.9698 6.99048C14.9698 6.99048 14.939 6.99048 14.9698 6.99048Z" fill="white"/>
<path opacity="0.2" d="M20.9366 16.5681C20.4752 16.8655 19.9831 17.1332 19.5218 17.4009C18.0147 18.2634 16.5383 19.0962 15.0312 19.9588C15.0005 19.9588 15.0005 19.9885 14.9697 19.9885C14.939 19.9885 14.939 19.9588 14.939 19.9588C14.939 19.9291 14.939 19.8993 14.939 19.8696C14.939 17.9363 14.939 16.003 14.939 14.0697C14.939 14.0399 14.939 14.0102 14.939 13.9804C14.939 13.9507 14.9697 13.9507 15.0005 13.9507C15.1235 14.0102 15.2465 14.0697 15.4003 14.1291C15.7694 14.3076 16.1692 14.4563 16.5383 14.6348C16.8767 14.7835 17.1842 14.9322 17.5226 15.0512C17.8609 15.1999 18.1685 15.3486 18.5068 15.4973C18.7836 15.6163 19.0912 15.7353 19.368 15.884C19.6448 16.003 19.9524 16.1219 20.2292 16.2706C20.4445 16.3599 20.6598 16.4788 20.9058 16.5681C20.9058 16.5383 20.9058 16.5681 20.9366 16.5681Z" fill="white"/>
<path d="M14.9698 25.8184C14.9698 25.8184 14.939 25.8184 14.9698 25.8184C14.939 25.8184 14.939 25.8184 14.9083 25.7886C14.2931 24.9558 13.7088 24.1527 13.0936 23.3199C12.4785 22.4871 11.8633 21.6543 11.2482 20.8215C10.6638 20.0185 10.0487 19.2154 9.46428 18.3826C9.3105 18.1744 9.15671 17.9662 9.00293 17.758C9.00293 17.7282 8.97217 17.7282 8.97217 17.6985C9.00293 17.6985 9.00293 17.7282 9.03368 17.7282C9.86412 18.2041 10.7253 18.68 11.5558 19.1559C12.5092 19.721 13.4935 20.2564 14.4469 20.8215C14.6007 20.9107 14.7853 21 14.939 21.0892C14.9698 21.0892 14.9698 21.1189 14.9698 21.1487C14.9698 21.1784 14.9698 21.2082 14.9698 21.2379C14.9698 22.7251 14.9698 24.1825 14.9698 25.6696C14.9698 25.6994 14.9698 25.7589 14.9698 25.8184Z" fill="white"/>
<path d="M8.97217 16.5687C8.97217 16.5687 9.00293 16.5687 8.97217 16.5687C9.00293 16.5687 9.00293 16.5687 8.97217 16.5687C8.97217 16.5985 8.97217 16.5985 8.97217 16.5687Z" fill="white"/>
<path opacity="0.598047" d="M9.00293 16.5994C9.00293 16.5696 9.00293 16.5696 9.00293 16.5994C9.3105 16.4507 9.61807 16.3317 9.92564 16.183C10.3255 16.0045 10.7253 15.826 11.1252 15.6476C11.4327 15.4989 11.7403 15.3799 12.0479 15.2312C12.4785 15.023 12.9398 14.8445 13.3704 14.6363C13.678 14.5173 13.9856 14.3686 14.2932 14.2497C14.5085 14.1604 14.7238 14.0712 14.939 13.9522C14.9698 13.9522 14.9698 13.9225 15.0006 13.9225C15.0006 13.9225 15.0006 13.9225 15.0006 13.9522C15.0006 13.982 15.0006 13.982 15.0006 14.0117C15.0006 15.9748 15.0006 17.9378 15.0006 19.9009C15.0006 19.9306 15.0006 19.9603 15.0006 19.9901C14.9698 20.0198 14.9698 19.9901 14.939 19.9901C14.8468 19.9306 14.7545 19.9009 14.693 19.8414C12.8168 18.7706 10.9406 17.6999 9.06444 16.6291C9.03369 16.5994 9.00293 16.5994 9.00293 16.5994Z" fill="white"/>
<path opacity="0.4" d="M20.9063 17.6985C20.9063 17.7282 20.9063 17.7282 20.8756 17.758C19.0917 20.1969 17.3078 22.6061 15.5238 25.045C15.3393 25.3127 15.1548 25.5507 14.9702 25.8184C14.9702 25.8184 14.9702 25.8184 14.9702 25.7886C14.9702 25.7589 14.9702 25.7589 14.9702 25.7291C14.9702 24.2122 14.9702 22.6953 14.9702 21.1784C14.9702 21.1487 14.9702 21.1189 14.9702 21.0892C15.3701 20.8513 15.7699 20.6133 16.1697 20.4051C17.7384 19.5128 19.307 18.6205 20.8756 17.7282C20.8756 17.6985 20.9063 17.6985 20.9063 17.6985Z" fill="white"/>
<path opacity="0.4" d="M14.9702 13.951C14.9702 13.9213 14.9702 13.8915 14.9702 13.8915C14.9702 11.6311 14.9702 9.34084 14.9702 7.08036C14.9702 7.05062 14.9702 7.02087 14.9702 7.02087C16.9387 10.1736 18.9071 13.3264 20.8756 16.4792C20.9063 16.5089 20.9371 16.5387 20.9371 16.5684C20.8141 16.5089 20.691 16.4494 20.5372 16.39C20.3835 16.3305 20.2297 16.2412 20.0759 16.1818C19.9836 16.152 19.8914 16.0925 19.7683 16.0628C19.6145 16.0033 19.43 15.9141 19.2762 15.8546C19.1839 15.8248 19.0917 15.7654 18.9994 15.7356C18.7841 15.6464 18.5688 15.5572 18.3535 15.4679C18.2305 15.4084 18.1382 15.3787 18.0152 15.3192C17.8614 15.2597 17.7076 15.1705 17.5538 15.111C17.4615 15.0813 17.3693 15.0218 17.277 14.992C17.0617 14.9028 16.8464 14.8136 16.6311 14.7243C16.5081 14.6649 16.4158 14.6351 16.2928 14.5756C16.139 14.5161 15.9852 14.4269 15.8314 14.3674C15.7391 14.3079 15.6161 14.2782 15.5238 14.2187C15.3393 14.1295 15.1548 14.0403 14.9702 13.951Z" fill="white"/>
</svg>
