<?xml version="1.0" encoding="UTF-8"?>
<svg id="Layer_1" xmlns="http://www.w3.org/2000/svg" version="1.1" viewBox="0 0 30 30">
  <!-- Generator: Adobe Illustrator 29.6.0, SVG Export Plug-In . SVG Version: 2.1.1 Build 207)  -->
  <defs>
    <style>
      .st0 {
        fill: #fff;
        fill-rule: evenodd;
      }

      .st1 {
        fill: #0090ff;
      }
    </style>
  </defs>
  <path class="st1" d="M14,0c12-.7,20.1,12.1,13.8,22.7-5.9,10.1-20.7,9.6-26-.9S3.5.7,14,0Z"/>
  <path class="st0" d="M16.3,13.2l-.5,2.5,4.4.6-.3,1.2-4.3-.6c-.3,1-.5,2.1-.8,3-.4,1.1-.8,2.2-1.2,3.2-.6,1.3-1.7,2.2-3.2,2.5-.8.2-1.8,0-2.5-.5-.2-.2-.5-.5-.5-.7s.2-.7.4-.8c.2,0,.5,0,.8,0,.2.2.5.5.6.8.5.6,1.1.7,1.7.2.7-.6,1.1-1.5,1.3-2.3.5-1.8.9-3.6,1.3-5.5v-.3l-4.1-.6.2-1.2,4.2.6.5-2.4-4.4-.7.2-1.2,4.5.6c.2-.5.2-.8.4-1.2.4-1.4.8-2.8,1.7-4s2-2,3.6-1.9c.7,0,1.4.2,1.8.8,0,0,.2.2.2.4,0,.3,0,.7-.2.9-.3.2-.7.2-1-.2-.2-.2-.4-.5-.6-.7-.5-.6-1.2-.7-1.7-.2-.4.4-.8.9-1,1.5-.5,1.6-.9,3.3-1.5,5l4.2.6-.3,1.2-4.1-.6"/>
</svg>