<?xml version="1.0" encoding="UTF-8"?>
<svg id="Layer_1" xmlns="http://www.w3.org/2000/svg" version="1.1" viewBox="0 0 30 30">
  <!-- Generator: Adobe Illustrator 29.1.0, SVG Export Plug-In . SVG Version: 2.1.0 Build 142)  -->
  <defs>
    <style>
      .st0 {
        fill: #fff;
      }

      .st1 {
        fill: #335dd2;
      }
    </style>
  </defs>
  <path class="st1" d="M15,0h0C23.3,0,30,6.7,30,15h0c0,8.3-6.7,15-15,15h0c-8.2-.1-15-6.8-15-15h0C0,6.7,6.8,0,15,0Z"/>
  <path class="st0" d="M15,4.9l-1.8,1.1-5,2.9-1.8,1.1v10.1l1.8,1.1,5.1,2.9,1.8,1.1,1.8-1.1,5-2.9,1.8-1.1v-10.1l-1.8-1.1-5-2.9-1.8-1.1h0ZM10,17.9v-5.8l5-2.9,5,2.9v5.8l-5,2.9-5-2.9Z"/>
</svg>