<svg width="30" height="30" viewBox="0 0 30 30" fill="none" xmlns="http://www.w3.org/2000/svg">
<path d="M14.9527 29.9998C6.62474 29.9524 -0.0470677 23.27 0.00025014 14.9763C0.00025014 6.63521 6.7667 -0.047142 15.0473 0.000250535C23.3753 0.0476431 30.0471 6.77739 29.9997 15.0711C29.9051 23.3648 23.186 30.0471 14.9527 29.9998Z" fill="#A5A8A9"/>
<path d="M14.8255 17.7333C16.8866 17.7715 18.9094 17.8097 20.9704 17.8862C20.8941 18.192 20.8178 18.4596 20.7796 18.7272C20.6651 19.1094 20.5506 19.4535 20.4743 19.8357C20.4361 20.0269 20.3598 20.0651 20.1689 20.0651C17.6117 20.0651 15.0927 20.0651 12.5355 20.0651C11.8104 20.0651 11.0852 20.0651 10.3219 20.0651C10.6654 18.7272 11.0089 17.4657 11.3524 16.1277C10.818 16.3188 10.36 16.51 9.82568 16.7393C9.97835 16.1659 10.131 15.669 10.3219 15.1338C10.3219 15.0573 10.4364 15.0191 10.5127 15.0191C10.8562 14.8662 11.2379 14.7515 11.5814 14.5986C11.6959 14.5604 11.8104 14.4457 11.8104 14.331C12.3447 12.3432 12.879 10.3554 13.4134 8.36759C13.4515 8.13822 13.5279 8.06177 13.795 8.06177C14.8637 8.06177 15.9324 8.06177 17.0011 8.06177C17.0774 8.06177 17.1537 8.06177 17.2682 8.06177C16.8484 9.62908 16.4667 11.1964 16.0469 12.8402C16.6576 12.5726 17.2301 12.3432 17.8789 12.1139C17.8026 12.4197 17.6881 12.6873 17.6499 12.9548C17.5736 13.5665 17.2301 13.9105 16.6194 14.0634C16.3522 14.1399 16.0851 14.2546 15.8179 14.3693C15.7416 14.4075 15.6271 14.5222 15.5889 14.5986C15.3217 15.6308 15.0546 16.6247 14.8255 17.6568C14.8255 17.6568 14.8255 17.695 14.8255 17.7333Z" fill="white"/>
</svg>
