<svg width="31" height="30" viewBox="0 0 31 30" fill="none" xmlns="http://www.w3.org/2000/svg">
<path fill-rule="evenodd" clip-rule="evenodd" d="M15.0469 30C23.332 30 30.0469 23.2843 30.0469 15C30.0469 6.71573 23.332 0 15.0469 0C6.76172 0 0.046875 6.71573 0.046875 15C0.046875 23.2843 6.76172 30 15.0469 30ZM24.3477 8.88861C24.5391 8.99802 24.6992 9.15503 24.8086 9.34415C24.918 9.53329 24.9805 9.74805 24.9805 9.96729L25.0039 14.8024C24.9766 15.2614 24.7461 15.6627 24.3828 15.8727L20.1875 18.2722C19.9961 18.3775 19.7812 18.432 19.5625 18.4305C19.3398 18.429 19.125 18.3716 18.9375 18.2638L17.4531 17.4084L17.4492 15.14L18.8828 15.9688C18.9883 16.0285 19.0977 16.0731 19.2109 16.1016C19.3086 16.1254 19.4062 16.1379 19.5078 16.1386C19.7266 16.14 19.9414 16.0844 20.1328 15.9771L22.3672 14.7002C22.75 14.4491 22.9844 14.0478 22.9844 13.6299L22.9453 11.1095C22.9375 10.8907 22.8789 10.6767 22.7656 10.4879C22.6562 10.2991 22.5 10.1418 22.3125 10.0308L20.0664 8.73581C19.8789 8.62598 19.6641 8.56744 19.4453 8.56598C19.2266 8.56448 19.0078 8.62012 18.8164 8.72739L16.5898 9.99918C16.2031 10.2502 15.9727 10.6516 15.9688 11.0694L15.9883 14.3525L15.9961 16.6208L16.0156 19.9039C15.9883 20.3629 15.7578 20.7643 15.3945 20.9742L11.1992 23.3737C11.0078 23.4791 10.7891 23.5336 10.5703 23.5321C10.4844 23.5315 10.4023 23.5226 10.3203 23.5056C10.1914 23.4788 10.0625 23.4315 9.94922 23.3653L5.73438 20.9327C5.55078 20.8291 5.39453 20.6758 5.29297 20.49C5.1875 20.3042 5.14062 20.0933 5.14844 19.8808L5.10547 14.9778C5.12891 14.5188 5.36328 14.1175 5.72266 13.9076L9.89453 11.5543C10.0078 11.4926 10.125 11.4484 10.25 11.4226C10.3398 11.4044 10.4297 11.3954 10.5195 11.396C10.7383 11.3975 10.9531 11.4549 11.1445 11.5627L12.668 12.4419L12.6758 14.7102L11.1914 13.8548C11.0039 13.745 10.7891 13.6865 10.5703 13.685C10.3516 13.6835 10.1328 13.7391 9.94141 13.8464L7.66797 15.0914C7.28125 15.3425 7.05078 15.7439 7.04688 16.1617L7.0625 18.7285C7.06641 18.9473 7.12891 19.1613 7.23828 19.3501C7.3125 19.4806 7.41406 19.5961 7.53125 19.6917C7.58203 19.7343 7.63672 19.7729 7.69531 19.8072L9.9375 21.1022C10.1289 21.212 10.3438 21.2705 10.5625 21.272C10.7812 21.2735 10.9961 21.2179 11.1875 21.1106L13.4648 19.8655C13.8477 19.6144 14.082 19.2131 14.082 18.7953L14.0234 15.4884L14.0625 13.2468L14.0234 9.89069C14.0469 9.4317 14.2812 9.03033 14.6406 8.82043L18.8398 6.4209C19.0312 6.31558 19.2461 6.26108 19.4648 6.26254C19.5898 6.2634 19.7148 6.28281 19.8359 6.31973C19.9219 6.34692 20.0078 6.38358 20.0898 6.42929L24.3477 8.88861Z" fill="url(#paint0_linear_6111_209)"/>
<defs>
<linearGradient id="paint0_linear_6111_209" x1="20" y1="20.5002" x2="5.5" y2="4.00021" gradientUnits="userSpaceOnUse">
<stop stop-color="#8247E5"/>
<stop offset="1" stop-color="#9D37DC"/>
</linearGradient>
</defs>
</svg>
