<?xml version="1.0" encoding="UTF-8"?>
<svg id="Layer_1" xmlns="http://www.w3.org/2000/svg" version="1.1" viewBox="0 0 30 30">
  <!-- Generator: Adobe Illustrator 29.6.0, SVG Export Plug-In . SVG Version: 2.1.1 Build 207)  -->
  <defs>
    <style>
      .st0 {
        fill: #00ec97;
      }
    </style>
  </defs>
  <path class="st0" d="M14,0c12-.7,20.1,12.1,13.8,22.7-5.9,10.1-20.7,9.6-26-.9S3.5.7,14,0Z"/>
  <path d="M20.9,6.2l-4.1,6.1c-.3.4.3.9.7.6l4-3.5c.1,0,.3,0,.3.1v10.9c0,.2-.2.2-.3.1L9.3,5.9c-.4-.5-1-.7-1.6-.7h-.4c-1.1,0-2.1.9-2.1,2.1v15.4c0,1.2.9,2.1,2.1,2.1s1.4-.4,1.8-1l4.1-6.1c.3-.4-.3-.9-.7-.6l-4,3.5c-.1,0-.3,0-.3-.1v-10.9c0-.2.2-.2.3-.1l12.2,14.6c.4.5,1,.7,1.6.7h.4c1.2,0,2.1-.9,2.1-2.1V7.3c0-1.2-.9-2.1-2.1-2.1s-1.4.4-1.8,1Z"/>
</svg>