<?xml version="1.0" encoding="UTF-8"?>
<svg id="Layer_1" xmlns="http://www.w3.org/2000/svg" version="1.1" viewBox="0 0 30 30">
  <!-- Generator: Adobe Illustrator 29.6.0, SVG Export Plug-In . SVG Version: 2.1.1 Build 207)  -->
  <defs>
    <style>
      .st0 {
        fill: #fff;
        fill-rule: evenodd;
      }

      .st1 {
        fill: #231f20;
      }
    </style>
  </defs>
  <path class="st1" d="M14,0c12-.7,20.1,12.1,13.8,22.7-5.9,10.1-20.7,9.6-26-.9S3.5.7,14,0Z"/>
  <g>
    <path class="st0" d="M15,5.4c-5.3,0-9.5,4.3-9.5,9.5s4.3,9.5,9.5,9.5h5.7c-1.7,1-3.6,1.6-5.7,1.6-6.2,0-11.1-5-11.1-11.1S8.8,3.8,15,3.8s11.1,5,11.1,11.1,0,1.1,0,1.6h-1.6c0-.5.1-1,.1-1.6,0-5.3-4.3-9.5-9.6-9.5Z"/>
    <path class="st0" d="M24.1,21.3c-.4.5-.9,1.1-1.4,1.6h-7.8c-4.4,0-7.9-3.6-7.9-7.9s3.6-7.9,7.9-7.9,7.9,3.6,7.9,7.9,0,1.1-.1,1.6h-1.6c.1-.5.2-1,.2-1.6,0-3.5-2.8-6.4-6.4-6.4s-6.4,2.8-6.4,6.4,2.8,6.4,6.4,6.4h9.1Z"/>
    <path class="st0" d="M25,19.7h0c.2-.5.4-1,.6-1.6h-10.7c-1.7,0-3.2-1.4-3.2-3.2s1.4-3.2,3.2-3.2,3.2,1.4,3.2,3.2-.1,1.1-.4,1.6h1.7c.2-.5.2-1,.2-1.6,0-2.6-2.1-4.8-4.8-4.8s-4.8,2.1-4.8,4.8,2.1,4.8,4.8,4.8h10.1Z"/>
  </g>
</svg>