<?xml version="1.0" encoding="UTF-8"?>
<svg id="Layer_1" xmlns="http://www.w3.org/2000/svg" version="1.1" viewBox="0 0 30 30">
  <!-- Generator: Adobe Illustrator 29.6.0, SVG Export Plug-In . SVG Version: 2.1.1 Build 207)  -->
  <defs>
    <style>
      .st0 {
        fill: #dcc61a;
      }

      .st1 {
        fill: #fff;
      }
    </style>
  </defs>
  <path class="st0" d="M14,0c12-.7,20.1,12.1,13.8,22.7-5.9,10.1-20.7,9.6-26-.9S3.5.7,14,0Z"/>
  <g>
    <path class="st1" d="M7.7,10.3s0,0,0,0c0-.1.1-.2.2-.3,0,0,0-.1,0-.2,0,0,0-.2.1-.2,0,0,0-.1.1-.2,0,0,0-.1.1-.2,0,0,.1-.2.2-.3,0,0,0-.1.1-.2,0,0,.1-.2.2-.3,0,0,0,0,0-.1,0-.1.2-.2.2-.3,0,0,0-.1.1-.2,0,0,.1-.2.2-.3.1-.1.2-.3.4-.4.3-.4.6-.7.9-1h0c-3.9,0-4.3,2-4.8,4.8-.2,1.2-.5,2.6-1.1,4-1,2.2-1.1,4-.4,5.3.6,1.2,2,2,4.1,2.4-.4-.6-.8-1.2-1.1-1.9-1.9-2.5-1.8-6.4,0-10,0,0,0,0,0,0,0-.1.1-.3.2-.4Z"/>
    <path class="st1" d="M24.7,14.1c0,.1,0,.2-.2.3,0,.1-.1.2-.2.4,0,.1-.1.2-.2.3,0,.1-.1.2-.2.4,0,0-.1.2-.2.3,0,.1-.2.2-.2.4,0,0-.1.2-.2.3,0,.1-.2.2-.3.4,0,0-.1.2-.2.3,0,.1-.2.3-.3.4,0,0-.1.1-.2.2-.2.2-.3.4-.5.6-1.1,1.3-2.3,2.4-3.8,3.3,0,0,0,0,0,0-.6.4-1.3.7-2,1,0,0,0,0,0,0-.1,0-.2,0-.3.1-1.1.4-2.2.5-3.4.5,0,0-.1,0-.2,0s-.2,0-.2,0c-.2,0-.3,0-.5,0-.1,0-.2,0-.3,0-.2,0-.3,0-.5,0-.1,0-.2,0-.3,0-.2,0-.3,0-.5,0-.1,0-.2,0-.4,0,0,0-.1,0-.2,0,.6.6,1.3,1.1,2,1.5,3.4,1.7,4.8.4,6.9-1.5,1.3-1.2,2.7-2.5,5-3.5,1.4-.6,2.2-1.4,2.6-2.5.5-1.4,0-2.8-.6-3.9,0,0,0,.1,0,.2,0,.1,0,.2-.1.3,0,.1-.1.2-.2.4Z"/>
    <path class="st1" d="M16.8,6.8c.2,0,.4.1.6.2,0,0,.1,0,.2,0,.2,0,.3.2.5.2,0,0,.1,0,.2,0,0,0,.1,0,.2,0,.8.2,1.5.4,2.2.8h0c.9.5,1.7,1.1,2.5,1.8,0,0,0,0,0,0,.1.1.3.3.4.4,0,0,.1.1.2.2.1.1.2.3.3.4,0,0,.1.1.2.2,0,.1.2.2.3.4,0,0,.1.2.2.3,0,.1.2.2.2.3,0,0,0,.1.1.2.5-1.6.5-3,0-3.9-.3-.6-.9-1-1.7-1.1-.4,0-.7-.1-1.1-.2-1.9-.3-3.6-.6-5.2-1.7-1.9-1.3-3.7-1.2-5.5.3,1.7,0,3.1.3,4.4.7,0,0,0,0,0,0,.2,0,.4.1.7.2Z"/>
    <path class="st1" d="M17.2,7.3c-1.5-.6-3.4-1-5.5-1.1h-.3c-.4.3-.8.7-1.1,1.2-3.5,3.9-4.7,8.8-3.1,12.1,0,0,0,0,0,0,0-.1,0-.2,0-.4,0,0,0,0,0,0-.5-2.4-.1-4.9,1.1-7,.5-.8,1-1.5,1.7-2.1,0,0,0,0,0,0,.2-.1.3-.3.5-.4,0,0,0,0,0,0,.2-.1.3-.2.5-.4,0,0,0,0,0,0,.2-.1.3-.2.5-.3,0,0,0,0,0,0,.2,0,.3-.2.5-.3,0,0,0,0,.1,0,.2,0,.3-.2.5-.2,0,0,0,0,.1,0,.2,0,.3-.1.5-.2,0,0,0,0,0,0,.5-.2,1.1-.3,1.7-.4,0,0,.1,0,.2,0,.1,0,.2,0,.4,0,.1,0,.2,0,.3,0,.1,0,.2,0,.3,0,.1,0,.3,0,.4,0,.1,0,.2,0,.3,0,0,0,.2,0,.3,0Z"/>
    <path class="st1" d="M19.5,8.3c0,0,.1,0,.2.1,0,0,.2.1.2.2,0,0,0,0,.1.1,0,0,.1.1.2.2,0,0,0,0,.1.1,0,0,.1.1.2.2,0,0,0,0,.1.1,0,0,.1.2.2.2,0,0,0,0,.1.1,0,.1.1.2.2.3,0,0,0,0,0,0,0,.1.2.3.2.4,0,0,0,0,0,.1,0,.1,0,.2.1.3,0,0,0,.1,0,.2,0,0,0,.2.1.3,0,0,0,.1,0,.2,0,0,0,.2,0,.3,0,0,0,.1,0,.2,0,0,0,.2,0,.3,0,0,0,.1,0,.2,0,.1,0,.2,0,.3,0,0,0,.1,0,.2,0,.1,0,.2,0,.4,0,0,0,.1,0,.2,0,.2,0,.4,0,.6,0,.2,0,.4,0,.6,0,0,0,.1,0,.2,0,.2,0,.3,0,.4,0,0,0,.1,0,.2,0,.2,0,.3,0,.4,0,0,0,.1,0,.2-.1.4-.2.8-.4,1.2,0,0,0,0,0,.1,0,.1-.1.3-.2.4,0,0,0,.1,0,.2,0,.1-.2.3-.2.4,0,0,0,0,0,.1-.1.2-.2.3-.3.5.4-.4.9-.9,1.3-1.3,1.3-1.5,2.4-3.3,3.1-5.2-1.1-1.8-2.7-3.3-4.6-4.3-.4-.2-.9-.4-1.3-.6,0,0,0,0,0,0,0,0,0,0,.1.1,0,0,.2.1.3.2Z"/>
    <path class="st1" d="M18,21.3c2.4-1.5,3.9-4.1,3.9-7,0-3-1.3-5.3-3.9-6.6-3.2-.6-7.6.7-9.8,4.4-1.5,2.6-1.7,5.8-.5,8.5.3.8.7,1.5,1.3,2.1,1.1.2,2.3.2,3.4.2,2,0,3.9-.5,5.6-1.6ZM11.3,10c1.5-1.1,3.3-1.4,5-1,1.5.4,2.7,1.4,3.3,2.8,1.2,2.7,1.2,6.3-1.8,8.2-1,.6-2.1.9-3.2.9-2,0-3.9-1-5-2.7-1.7-2.7-1-6.3,1.8-8.2Z"/>
  </g>
</svg>