<?xml version="1.0" encoding="UTF-8"?>
<svg id="Layer_1" xmlns="http://www.w3.org/2000/svg" version="1.1" viewBox="0 0 30 30">
  <!-- Generator: Adobe Illustrator 29.6.0, SVG Export Plug-In . SVG Version: 2.1.1 Build 207)  -->
  <defs>
    <style>
      .st0 {
        fill: none;
      }

      .st1 {
        fill: #c82727;
      }

      .st2 {
        fill: #fff;
      }

      .st3 {
        fill: #3d8130;
      }

      .st4 {
        fill: #983b1f;
      }
    </style>
  </defs>
  <path class="st3" d="M14,0c12-.7,20.1,12.1,13.8,22.7-5.9,10.1-20.7,9.6-26-.9S3.5.7,14,0Z"/>
  <g>
    <path class="st0" d="M9.2,23.9h.2c-.2,0-.4,0-.6-.1h.3Z"/>
    <path class="st3" d="M21.7,13h0Z"/>
    <path class="st3" d="M21.8,15.7h0Z"/>
    <polygon class="st3" points="20.7 19.9 20.7 19.9 20.7 19.8 20.7 19.9"/>
    <path class="st3" d="M8.9,11.9l-.7,1.3-.7,1.4-.5,1.3-.3,1.4-.2,1.5v1.3c-.1,0-.3.8-.3.8v.7c.1,0,.4.6.4.6l.4.8,1,.6.8.3c.2,0,.4.1.6.2l.9.2h1.3c0,0,1.1,0,1.1,0,.1,0,1.2,0,1.2,0h1.4s1.3-.1,1.3-.1l.6-.2.4-.5v-.6c0,0,0-.3-.1-.3,0,0-.3-.4-.5-.6h0c-.1-.2-.3-.4-.3-.5s.1-.3.1-.4h0s.5-.2.5-.2l.4.3.3-.2.4-.4.6-.5.6-.3h.5c0,0,.6.3.6.3h0s.3-.3.3-.3l.2-.4v-.4h0c0-.1-.3.1-.3.1l-.5.2h-.8s-1.2.1-1.2.1h-.4s-.3,0-.3,0h-.8c0-.1-.9-.3-.9-.3l-1.4-.2h0l-1.3-.6-1.2-.7-.7-.5v-.3c0,0,0-.3,0-.3l.3-.2.7.2,1.5.5c.7.1,1.8.4,1.9.4h0s.2,0,.5,0c.4,0,.9.1,1,.1.2,0,1.6,0,1.7,0,0,0,1.2,0,1.3,0s.5-.1.8-.2l.4-.5.4-.7c0-.2,0-.4,0-.6,0-.2-.3-.5-.5-.6-.1.2-.3.4-.4.4,0,0-.1,0-.2,0-.1,0-.2,0-.3,0h0c.1,0,.3,0,.4,0,.2,0,.3-.2.4-.4-.1,0-.3,0-.4,0s-.2,0-.3,0h0c0,0,0-.1,0-.1,0,0,.5.1.8-.2.2-.2.4-.5.4-1l-.4.5-.5.2c-.2,0-.9.2-1,.2s-.1,0-.3,0c-.3,0-.7-.1-.8-.1-.2,0-.5-.2-.5-.2h0s.2-.7.2-.7l.6-.7.6-.5h1.6c0,0,.3.5.3.5l.2.2v-.6l-.6-.2c0,0-.7,0-.8,0s-.7,0-.8,0l-.8.5h0c0,0,.8-.6.8-.6h0s.7-.1.8-.1.8,0,.9.1h0s.7.3.7.3h0s0,0,0,0l-.3-.3-.6-.3h-.7c0,0-.8,0-.8,0h-.3c0,.1,0,0,0,0h.3c0-.1.8-.3.8-.3h.7c0,0,0,0,0,0l-.2-.3-.6-.5h0s-2.4,0-2.4,0c0,0-.3,0-.7,0l.3.5.2.3v.3c0,0-.2,0-.2,0v-.3c0,0,0-.3,0-.3l-.4-.5h0c-.5,0-.9,0-1,0,0,0-2,.1-2.1.1-.2,0-.3,0-.5,0,0,0-1.3-.5-1.4-.5s-.5-.5-.5-.5l-.9-.3-.8,1-.8,1.2ZM18.4,14.6c.1,0,.2.1.3.2h.7c0,0,.4,0,.4,0h0c0,.1-.4.2-.4.2h-.5c.2,0,.4.3.5.4.1.1.2.3.3.4h-.1c-.1-.1-.2-.3-.4-.4-.2-.2-.4-.4-.6-.5h0l-.3-.2h0ZM11.7,12.4l.5-.5.5-.4h.7c0-.1.7-.2.7-.2h1.4s1.2,0,1.2,0l.4.2.5.4.3.3v.7c.1,0,0,0,0,0v-.7c-.1,0-.4-.3-.4-.3l-.5-.4-.4-.2h-1s.4.2.4.2c.2.1.6.3.7.4,0,0,.3.4.6.6h0s.4.6.4.6v.5c0,0,0,0,0,0v-.4c0,0-.5-.5-.5-.5-.1-.1-.6-.6-.6-.6,0,0-.3-.2-.6-.4l-.6-.3h-.6s-.7,0-.7,0h-.7s-.6.1-.6.1l-.4.4-.5.5v.3c0,0,0,0,0,0h.3c0-.1.4-.7.4-.7l.8-.3h1c0-.1.9,0,.9,0l1.1.6.5.3.4.6.2.6.3.2v.3l-.3.3-.5.2-.2.2-.2.4v.2c-.1,0-.1,0-.1,0-.1,0-.4.2-.5.2,0,0-.4.2-.7.3h0s-.5.2-.7.2h0c.1-.1.6-.3.6-.3.3-.1.7-.3.7-.3.1,0,.3-.1.4-.2h0c0,0,.3-.5.3-.5h0c-.2,0-.4,0-.5-.1,0,0-.2,0-1.1,0s-.8-.1-.8-.1c0,0-.6-.2-.6-.2h0s0,0,0,0c0,0-.5-.5-.9-.7h0c.4.1.8.5.9.6,0,0,.5.2.6.2,0,0,.6.1.8.1,1.1,0,1.2,0,1.2,0,0,0,.3,0,.5,0h0s0,0,0,0l.5-.2.2-.2h0c0-.1-.2-.2-.2-.2h0s-.5.2-.5.2h-.7c0,0-.2,0-.4,0s-.4,0-.5,0c0,0-.7-.2-1-.2h0c-.4-.2-.8-.5-.9-.5,0,0-.3-.2-.5-.2h0l-.6-.4h0s0,0,0,0h-.2c0-.1-.3,0-.3,0l-.2-.2v-.4ZM12,15.2h0c0,.1-.4.2-.4.2h-.2s0,0,0,0h0c0,0,.6-.2.6-.2ZM12.2,15.7h0c-.1,0-.3,0-.4.1-.2,0-.5.2-.9.5h0c.6-.8,1.4-.7,1.4-.6h0Z"/>
    <path class="st3" d="M13,12.8s.9-.1,1-.1.2,0,.3,0c.2,0,.5,0,.6,0,0,0,.9,0,1-.1h.5s0,0,0,0l-1.1-.6h-.8c0,0-1,0-1,0l-.7.3-.4.5h.2c0,.1.5,0,.5,0Z"/>
    <path class="st3" d="M15.9,12.7c-.4,0-.9,0-1,0,0,0-.2,0-.6,0-.1,0-.3,0-.3,0,0,0-.7,0-1,0h-.4c0,0,.5.4.5.4.2,0,.4.2.5.3,0,0,.4.3.8.5,0,0,.9.2,1,.2,0,0,.5,0,.8,0h.7c0,0,.4-.2.4-.2h0s-.2-.7-.2-.7l-.4-.6h-.2c0-.1,0,0,0,0h-.6Z"/>
    <path class="st3" d="M21.3,12.7l-.3-.3h-.7c0,0-.8,0-.8,0l-.6.4-.6.7-.2.5c0,0,.3.2.4.2s.5,0,.8.1c.2,0,.3,0,.3,0,0,0,.6-.1.9-.2l.4-.2.3-.4v-.2s-1.1-.4-1.1-.4h-1.4s0-.2,0-.2h1.4s1.1.5,1.1.5v.3s0,0,0,0v-.3l-.3-.4Z"/>
    <path class="st3" d="M20.1,19.6h-.4c0,0-.6.4-.6.4l-.6.5-.2.2.4.3v.2s-.2.3-.2.3h0c0,0,.2-.3.2-.3h0c0-.1-.4-.4-.4-.4h-.1c0,.1-.2.2-.2.2v.3c0,0,.3.3.3.3h.5c0,0,.2-.2.3-.2,0,0,.1,0,.2-.1.2-.1.2-.2.3-.2.1,0,.3-.1.4-.2h0s.6,0,.6,0l.2.2h0c-.1.2-.3.4-.3.4,0,0,0,0,0,0h.1c0,0,.6-.5.6-.5h0c0,0-.6.6-.6.6l-.3.2s0,0,0,0h0s-.5.2-.5.2l-.3.5v.3c-.1,0,.1.3.1.3l.3.3h.3s.3,0,.3,0h0c0,0,.3-.5.3-.5l.6-.6h0c0,0-.6.6-.6.6l-.3.4v.3s.3.2.3.2h.4s.2,0,.2,0h0c0,0,0,0,0,0,0,0,.3-.4.4-.4,0,0,.3-.4.5-.5h0c0,0-.4.5-.5.6,0,0-.3.3-.4.4l.2.3h.6c0-.1.2-.5.2-.5l.3-.4h0c0,0-.3.4-.3.4l-.3.4-.4.2h-.4l-.2-.3h-.3c0,0-.4,0-.4,0l-.4-.3v-.2s-.3,0-.3,0h-.4s-.3-.4-.3-.4l-.4-.2-.4-.5v-.7c-.1,0,0,0,0,0v.6c0,0,.6-.4.6-.4l.5-.5.3-.4h-.2c-.2,0-.4.2-.4.2,0,0-.1,0-.2.1-.2.1-.2.2-.3.2,0,0-.2,0-.3.2h0s-.6,0-.6,0l-.4-.4v-.3c0,0,0,0,0,0l-.4-.3h-.4c0,.2,0,.3-.1.5,0,0,.1.3.3.4.2.2.5.6.5.7,0,0,0,.3.1.3h0s0,.8,0,.8l.2.3c.1,0,1,.6,1.1.6,0,0,.7.2,1.1.3h1.3c0,.1,1,0,1,0l.9-.4.5-.5v-.4c-.1,0-.7-1.1-.7-1.1l-.4-.6-.7-.8-1.1-.6-.2-.4-.5-.4Z"/>
    <path class="st4" d="M21,17.2h0c-.1,0-.7.3-.8.3s-1.3,0-1.3,0h0s-1.5,0-1.7,0-.6,0-1-.1c-.2,0-.5,0-.5,0,0,0-1.6-.3-1.9-.4h0l-1.5-.5h-.6c0-.1-.2,0-.2,0v.3c0,0,0,.3,0,.3l.7.5,1.2.7,1.3.5,1.4.2.9.2h1c0,.1,1.6,0,1.6,0h.8s.5-.1.5-.1l.4-.3.3-.5v-.2c0,0,0-.3,0-.3-.5.4-.5.5-.6.5h-.5c0,.1-1.4.2-1.4.2h-1.5c0,0-1.5-.3-1.5-.3h-1.2s0,0,0,0l-1.2-.3-1.1-.4-.6-.4h0c0,0,.6.2.6.2l1.1.4,1.2.3h1.2s0,0,0,0l1.5.3h1.5c0,0,1.4,0,1.4,0h.5c0-.1.2-.3.5-.6,0,0,0,0,0,0l.4-.6.2-.3c0,0,0-.2,0-.3,0,0-.1-.2-.2-.3,0,0,0,.1,0,.2h0s-.4.7-.4.7l-.4.5Z"/>
    <path d="M23.7,23.4l-.6-1.1-.4-.7-.7-.8-1.1-.6-.2-.3h0s0,.4.2.4,1,.5,1.1.5c0,0,.9,1,.9,1l.7,1.1.4.9s-.5.5-.5.5-1,.5-1,.5-1,.1-1,0c0,0-1.2-.1-1.3-.1,0,0-1.2-.4-1.2-.4l-.9-.6-.3-.4-.4.4s-.5.3-.6.3-1.3.2-1.4.2h-2.6s-2.5,0-2.6,0c0,0-.2,0-.5-.2h-.2s-.3-.2-.3-.2c-.4-.1-.8-.2-.8-.2l-1-.7s-.4-.8-.5-.8-.3-.7-.3-.7,0-.5,0-.5l.2-1.2v-1.2c0,0,.3-1.3.3-1.3,0,0,.3-1.3.3-1.4,0,0,.5-1.4.5-1.4l.6-1,.7-1.5.8-1.2.8-1h0s0,0,0,0l-.8,1-.9,1.3-.7,1.3-.7,1.4-.5,1.3-.3,1.4-.2,1.5v1.3c-.1,0-.3.9-.3.9v.7c.1,0,.4.6.4.6l.5.8,1.1.7,1.1.4,1.1.2h1.3c0,0,1.1,0,1.1,0,.1,0,1.1,0,1.2,0h1.4s0,0,0,0l1.3-.2h0l.6-.3.3-.4.3.4h0s1,.6,1.1.6c.1,0,1,.3,1.1.3h1.3c0,.1,1.1,0,1.1,0h0l.9-.4h0s.5-.5.5-.5v-.5Z"/>
    <path d="M9.7,10.6l-.8,1.2-.7,1.5-.6,1s-.5,1.3-.5,1.4c0,0-.3,1.4-.3,1.4l-.2,1.3v1.2c0,0-.3,1.2-.3,1.2,0,0,0,.5,0,.5s.3.7.3.7.5.8.5.8l1,.7s.4.1.8.2l-.8-.3-1-.6-.4-.8-.2-.6v-.7c-.1,0,0-.8,0-.8v-1.3c.1,0,.3-1.5.3-1.5l.3-1.4.5-1.3.7-1.4.7-1.3.9-1.2.8-1h0s-.8.9-.8.9Z"/>
    <path d="M20.1,19.4h-.5c0,0-.6.4-.6.4l-.6.5-.4.4-.3.2-.4-.3-.5.2h0c0,0-.1.3-.1.4s.2.4.3.5h0c.2.3.5.6.5.6,0,0,0,.3.1.3v.6s-.4.5-.4.5l-.6.2-1.3.2h-1.4s-1.1,0-1.2,0h-2.4c0,0-.9-.2-.9-.2.3,0,.5.2.5.2.1,0,2.6,0,2.6,0h2.6c0,0,1.4-.2,1.4-.2s.6-.3.6-.3l.4-.4.3.4.9.6s1.1.4,1.2.4c0,0,1.2.1,1.3.1,0,0,1,0,1,0s1-.5,1-.5c0,0,.5-.5.5-.5l-.4-.9-.7-1.1s-.8-1-.9-1c0,0-1-.5-1.1-.5s-.2-.4-.2-.4h0s-.6-.4-.6-.4ZM20.8,20.3l1.1.6.7.8.4.6.6,1.1v.4c.1,0-.4.5-.4.5l-.9.4h-1c0,.1-1.3,0-1.3,0-.4-.1-1-.3-1.1-.3,0,0-1-.6-1.1-.6l-.2-.3v-.8s0,0,0,0c0,0-.1-.3-.1-.3,0,0-.4-.5-.5-.7-.1-.2-.3-.4-.3-.4,0-.1,0-.2.1-.3h.4c0-.1.4.1.4.1h0s0,.3,0,.3l.4.4h.6s0,0,0,0c0,0,.2-.1.3-.2,0,0,.1,0,.3-.2,0,0,.1,0,.2-.1,0,0,.3-.1.4-.2h.2s-.3.5-.3.5l-.5.5-.5.4v-.6c0,0-.2,0-.2,0v.7c.1,0,.5.5.5.5l.4.2.3.3h.4s.3,0,.3,0v.2s.4.3.4.3h.4s.3,0,.3,0l.2.3h.4l.4-.2.3-.4.3-.3h0c0,0-.3.3-.3.3l-.2.4h-.3c0,.1-.3.1-.3.1l-.2-.3c0,0,.3-.3.4-.4s.4-.5.5-.5h0c-.1,0-.4.4-.5.4s-.4.4-.4.4h0s0,0,0,0h-.2c0,0-.4,0-.4,0l-.3-.2v-.3s.3-.4.3-.4l.6-.5h0c0,0-.6.5-.6.5l-.3.5h0c0,0-.3.1-.3.1h-.3s-.3-.3-.3-.3l-.2-.3v-.3c.1,0,.4-.5.4-.5l.5-.3h0s0,0,0,0l.3-.2.6-.5h0c0,0-.6.4-.6.4h-.1c0,0,0,0,0,0,0,0,.1-.2.3-.4h0s-.2-.2-.2-.2h-.6c0,0,0,0,0,0-.1,0-.3.2-.4.2,0,0-.1,0-.3.2,0,0-.1,0-.2.1,0,0-.2,0-.3.2h-.5s-.3-.3-.3-.3v-.3c0,0,.3-.1.3-.1h.1c0-.1.4.2.4.2h0c0,.1-.2.3-.2.3h0c0,0,.3-.2.3-.2v-.2s-.4-.3-.4-.3l.2-.2.6-.5.6-.3h.4c0,0,.5.3.5.3l.2.3ZM19.2,22.9h-.2c0,0-.4-.5-.4-.5l.5-.4.6-.5.4-.5h.2s0,.1,0,.1c-.1.1-.3.3-.3.4,0,0,0,.1,0,.2l-.5.3-.3.5v.4c-.1,0,0,.1,0,.1Z"/>
    <path d="M20.6,11l.3.4s.1.2.2.2.5.3.5.3l.2.2h0c0,.1-.2,0-.2,0v.8h0v-.7h.1c0,0,0-.2,0-.2l-.4-.3-.4-.2h0s-.3-.5-.3-.5l-.6-.6h0c0,0,0,0,0,0l.5.4Z"/>
    <path d="M21.6,14.1s-.2.4-.2.4c0,0-.2,0-.2,0h0c0,.2.2.2.3.3,0,0,.1.3.2.5h.1c0-.3-.3-.5-.6-.7,0,0,0,0,0,0,0,0,0,0,0,0,.3-.2.4-.6.5-1.1v-.4h0c0-.1,0,.5,0,.5v.5Z"/>
    <path d="M20.7,11.1l.2.3h0s-.7,0-.7,0h-.8c0,.1-.3.3-.3.3h0c0,.1.3,0,.3,0h.8c0-.1.7,0,.7,0l.6.3.3.3h0s0,0,0,0l-.7-.3h0s-.7-.1-.9-.1-.8,0-.8.1h0l-.8.5h0c0,0,.8-.4.8-.4,0,0,.7,0,.8,0s.8,0,.8,0l.6.2v.6l-.2-.2-.3-.4h-.8c0,0-.8,0-.8,0l-.6.5-.6.7-.2.6h0s.3.3.5.3.5,0,.8.1c.2,0,.3,0,.3,0,0,0,.8-.2,1-.2l.5-.2.4-.5c0,.5-.2.8-.4,1-.3.3-.8.2-.8.2h0c0,0,0,.1,0,.1,0,0,.2,0,.3,0,.1,0,.3,0,.4,0-.1.2-.2.4-.4.4-.1,0-.3,0-.4,0h0c0,.2.2.2.3.2s.1,0,.2,0c.2,0,.3-.2.4-.4.2.1.4.4.5.6h0c0-.2-.2-.5-.2-.5,0,0-.2-.1-.3-.2h0c0-.1.2-.2.2-.2,0,0,.2-.4.2-.4v-.5c0,0,0-.6,0-.6h0v-.8s.1,0,.1,0h0c0-.1-.2-.4-.2-.4,0,0-.5-.3-.5-.3,0,0-.2-.2-.2-.2l-.3-.4-.5-.4h0s.6.5.6.5ZM21.6,13.5v-.3s-1.2-.5-1.2-.5h-1.4s0,0,0,0h1.4s1.1.5,1.1.5v.2s-.3.4-.3.4l-.4.2c-.3,0-.9.2-.9.2,0,0-.2,0-.3,0-.3,0-.7-.1-.8-.1s-.3-.1-.4-.2l.2-.5.6-.7.6-.4h1.5c0,0,.3.4.3.4l.3.4v.3s0,0,0,0h0Z"/>
    <polygon points="17.9 19.2 18.2 19.2 17.6 19.2 17.9 19.2"/>
    <path d="M21.2,19.2s-.4.6-.4.6h-.2c0,0,0,.1,0,.1l.3-.2.3-.4h0c0,0,0,0,0,0,0,0,0,0,0,0Z"/>
    <path d="M21.2,19.2s0,0,0,0h0s-.2.4-.2.4l-.3.2h0s0,0,0,0h.2c0,0,.3-.6.3-.7Z"/>
    <path d="M21.8,15.6h0s0-.1,0-.2h-.1c0,.1.1.2.1.2Z"/>
    <path d="M22.1,16.3s0,.3,0,.3c0,0-.6.8-.6.8v.3c.1,0,.2.2.1.2s-.5.8-.5.8v.2c0,0,0,.3,0,.3h0v-.6h0,0s.4-.6.4-.6v-.3c0,0,0-.3,0-.3h0s.5-.6.5-.6l.2-.3h0c0-.1,0-.2,0-.3,0,0,0,0-.3-.4h0s.2.3.2.3c0,0,.2.3.1.3Z"/>
    <path d="M21.6,15.4h0c0,.2,0,.4,0,.6l-.4.7-.4.5c-.3,0-.7.2-.8.2-.1,0-1.3,0-1.3,0,0,0-1.5,0-1.7,0s-.6,0-1-.1c-.3,0-.5,0-.5,0h0c0,0-1.2-.2-1.9-.4l-1.5-.5-.7-.2-.3.2v.3c0,0,0,.3,0,.3l.7.5,1.2.7,1.3.6h0l1.4.2.9.2h.8c0,.1.7.1.7.1h1.2c0-.1.8-.1.8-.1h0l.5-.2.3-.2h0v.5h0c0,0,0-.3,0-.3v-.2c0,0,.4-.8.4-.8,0,0,0-.2,0-.2v-.3c-.1,0,.4-.8.4-.8,0,0,0-.3,0-.3,0,0-.1-.3-.1-.3l-.2-.3h0c0,0,0-.2-.1-.3ZM21.8,16c0,0,0-.1,0-.2,0,0,.1.2.2.3,0,0,0,.2,0,.3l-.2.3-.4.6s0,0,0,0c-.3.3-.5.4-.5.5h-.5c0,.1-1.4.2-1.4.2h-1.5c0,0-1.5-.3-1.5-.3h-1.2s-1.2-.3-1.2-.3l-1.1-.4-.6-.3h0c0,0,.6.5.6.5l1.1.4,1.2.3h1.2s1.5.2,1.5.2h1.5c0,0,0,0,0,0h1.4c0,0,.5-.2.5-.2,0,0,0,0,.6-.5v.3c.1,0,0,.2,0,.2l-.3.5-.4.3h-.5c0,.1-.8.1-.8.1h0l-1.6.2h-1c0-.1-.9-.3-.9-.3l-1.4-.2-1.3-.5-1.2-.7-.7-.5v-.3c0,0,0-.3,0-.3l.2-.2h.6c0,.1,1.5.6,1.5.6h0c.3,0,1.8.4,1.9.4s.3,0,.5,0c.4,0,.9.1,1,.1.2,0,1.6,0,1.7,0h0s1.2,0,1.3,0,.7-.2.8-.3h0s.4-.5.4-.5l.4-.7h0Z"/>
    <path d="M11.8,15.8c.1,0,.3,0,.4,0h0c0-.1-.7-.3-1.4.5h0c.3-.3.6-.4.9-.5Z"/>
    <polygon points="11.6 15.4 12 15.3 12 15.2 11.4 15.3 11.4 15.4 11.6 15.4"/>
    <polygon points="11.4 15.4 11.6 15.4 11.4 15.4 11.4 15.4"/>
    <path d="M18.7,14.9c.2.2.5.3.6.5h.2c-.2-.2-.3-.4-.5-.5h.5c0,0,.4,0,.4,0h0c0-.1-.4,0-.4,0h-.7c-.1-.1-.2-.2-.3-.3h0c0,.1.3.3.3.3h0Z"/>
    <path d="M19.7,15.9h.1c0-.2-.2-.4-.3-.5h-.2c.1.2.3.3.4.5Z"/>
    <path d="M12.2,12.8h.2c0,.1,0,.2,0,.2h0s.6.4.6.4h0c.2,0,.4.2.5.2,0,0,.5.3.9.5h0s0,0,0,0c.3,0,.9.2,1,.2,0,0,.3,0,.5,0s.3,0,.4,0h.7c0,0,.5-.3.5-.3h0s.2,0,.2,0h0c0,.1-.2.3-.2.3l-.5.2h0c0,0,0,0,0,0-.2,0-.5,0-.5,0,0,0,0,0-1.2,0s-.7-.1-.8-.1c0,0-.5-.2-.6-.2,0,0-.5-.5-.9-.7h0c.4.3.9.8.9.8h0s0,0,0,0c0,0,.6.2.6.2,0,0,.6.1.8.1.9,0,1.1,0,1.1,0,0,0,.3,0,.5,0h0c0,0-.3.5-.3.5h.1l.2-.4.2-.2.5-.2.3-.3v-.3l-.3-.2-.2-.6-.4-.6-.5-.3-1.1-.6h-.9c0,0-1,0-1,0l-.8.3-.4.5h-.3c0,.1-.1,0-.1,0v-.3c0,0,.5-.5.5-.5l.4-.4h.6c0-.1.7-.1.7-.1h1.3s.6.4.6.4c.3.1.6.3.6.4,0,0,.5.5.6.6l.4.5v.4c0,0,.2,0,.2,0v-.5c0,0-.5-.6-.5-.6h0c-.3-.3-.6-.6-.6-.6,0,0-.4-.3-.7-.4l-.4-.2h1s.4.2.4.2l.5.4.3.3v.7c.1,0,.2,0,.2,0v-.7c-.1,0-.4-.3-.4-.3l-.5-.4-.4-.2h-1.2s-.6,0-.6,0h-1.4s-.7.2-.7.2l-.5.4-.5.5v.4c0,0,.2.2.2.2l.3-.2ZM16.7,12.8l.4.6.2.7h0s-.4.2-.4.2h-.7c-.3,0-.7,0-.8,0-.1,0-.9-.2-1-.2-.4-.2-.8-.4-.8-.5,0,0-.3-.2-.5-.3l-.5-.3h.4c.2,0,.9-.2,1-.2s.2,0,.3,0c.4,0,.6,0,.6,0,0,0,.6,0,1,0h.6s0,0,0,0l.2.2ZM12.7,12.3l.7-.3h1c0,0,.8,0,.8,0l1.1.6h0c0,0-.5,0-.5,0,0,0-.9,0-1,.1,0,0-.4,0-.6,0-.2,0-.3,0-.3,0-.1,0-.9,0-1,.1h-.5c0,0-.2,0-.2,0l.4-.5Z"/>
    <path d="M16.4,15.5c-.1,0-.3.1-.4.2,0,0-.4.2-.7.3,0,0-.5.2-.6.2h0c.1,0,.6,0,.7,0h0c.3-.1.6-.3.7-.3,0,0,.3-.1.5-.2h0s.1-.2.1-.2h-.2Z"/>
    <path d="M16.9,10.7h0s0,0,.1,0h0Z"/>
    <path d="M17.2,11.3l.2.3v.3c0,0,0,0,0,0v-.3c0,0,0-.3,0-.3l-.3-.5s0,0-.1,0h0s.4.5.4.5Z"/>
    <path class="st1" d="M20.8,11.1h.5c0,0,1.3.3,1.4.4s.7.3.7.3h.4s0-.3,0-.3l-.3-.4-.8-.6-.9-.5-.6-.2-.2-3-.5-.7-.7-.6-1-.5h-1s-1.9.2-1.9.2l-1.7.3v-.3c-.2,0-.4,0-.5,0,0,0-1,.3-1,.3l-.6.3v.3c-.1,0-.9.4-.9.4l-.6.8-.4.8s-.2.8-.2.8,0,.5.2.5.6.2.6.2l.7.3,1,.6,1.2.4s1.2,0,1.3,0,1.9-.2,2-.2,2-.2,2.1-.2,1.2,0,1.2,0l.5.4.2.2Z"/>
    <polyline points="20.3 12.8 20.5 13.1 20.6 13.5 20.5 13.7 20.3 14.2 19.7 14.3 18.7 14.2 18.6 13.8 18.6 13.5 18.7 13 19 12.7 19.1 12.8 20.3 12.8"/>
    <path d="M15.7,12.8l.2.4v.4s0,.4,0,.4l-.2.3h-.3s-1.2-.4-1.2-.4l-.5-.4v-.3c0,0,.2-.3.2-.3l.2-.2h.9s.8,0,.8,0Z"/>
    <path d="M23.6,11.2l-.5-.4-.7-.5-1.1-.4h-.2c0,0,0-1,0-1,0-.5-.1-1.2-.1-1.3s0-.7,0-.7h0s-.3-.6-.3-.6l-.6-.6-.9-.5-.7-.2h-2c-.4.2-1,.3-1.1.3-.1,0-.9.2-1,.2h-.3c0,0,0,0,0,0v-.2c0,0-.4-.1-.4-.1h-.4s-.7.2-.7.2l-.5.3v.3c-.1,0,0,0,0,0h-.3c0,0,0,0,0,0l-.6.4-.4.5-.4.7-.3,1.1v.4l.2.4,1.3.5.4.4,1,.4.8.2h1.6c0-.1,2.3-.4,2.3-.4h1.6c0-.1,1.3-.1,1.3-.1l1.4.2,1.1.5h0c0-.1-1.1-.6-1.1-.6l-1.4-.2h-1.4s-1.6,0-1.6,0l-2.3.2h-1.5c0,0-.8,0-.8,0l-.9-.4-.4-.4-1.3-.5-.2-.3v-.3l.3-1.1.4-.6.4-.5.6-.4,2.7-.7c.3,0,.9-.2,1-.2.1,0,1-.1,1.1-.2h1c0-.1,1-.1,1-.1l.7.2.8.5.5.6.3.6c0,.2,0,.6,0,.7s.1,1.2.1,1.3v.9s-.6-.3-.6-.3h-1.4c0-.1-1-.3-1-.3h-1c0,0-1.2.2-1.2.2l-1.4.3-1,.2h-.7s-.9-.1-.9-.1l.4.3.4.2.8.2h.8s0,0,0,0h.7c0,0,1-.2,1-.2l1-.2h1.1c0,0,.8-.1.8-.1h.9c0,0,1.3.2,1.3.2l1.6.3.3.2.5.4v.3c.1,0,0,.2,0,.2h-.2s-.5-.2-.5-.2l-.9-.4-.7-.2h-.6c0,0,0,.2,0,.2h.6c0,0,.7.1.7.1l.9.3.5.2h.4s0-.4,0-.4l-.2-.3ZM12.1,6.1v-.2c0,0,.6-.3.6-.3l.7-.2h.4s.2,0,.2,0h0c0,.1-2,.6-2,.6ZM21.2,10.3h0c0,0,0,0,0,0l-1.3-.2h-.9c0,0-.8,0-.8,0h-1.1c0,0-1,.2-1,.2l-1,.2h-.7c0,0-.8,0-.8,0l-.8-.2-.3-.2h0,.4c0,0,.7,0,.7,0l1-.2,1.4-.3h1.2c0-.1,1-.2,1-.2h1c0,0,1.3.2,1.3.2l1,.4,1.1.4h.1c0,0-1.4-.2-1.4-.2Z"/>
    <ellipse class="st2" cx="15.2" cy="13.4" rx=".4" ry=".3" transform="translate(-3.2 4.9) rotate(-16.6)"/>
    <circle class="st2" cx="14.4" cy="13.5" r=".2"/>
    <circle class="st2" cx="14.3" cy="13.1" r=".2"/>
    <circle class="st2" cx="19.2" cy="13.7" r=".1"/>
    <circle class="st2" cx="19.2" cy="13.2" r=".2"/>
    <circle class="st2" cx="20" cy="13.5" r=".3"/>
  </g>
</svg>