<?xml version="1.0" encoding="UTF-8"?>
<svg id="Layer_1" xmlns="http://www.w3.org/2000/svg" xmlns:xlink="http://www.w3.org/1999/xlink" version="1.1" viewBox="0 0 30 30">
  <!-- Generator: Adobe Illustrator 29.1.0, SVG Export Plug-In . SVG Version: 2.1.0 Build 142)  -->
  <defs>
    <style>
      .st0 {
        fill: url(#linear-gradient);
      }
    </style>
    <linearGradient id="linear-gradient" x1="28.5" y1="216.2" x2="43.3" y2="230.6" gradientTransform="translate(-20.9 238.4) scale(1 -1)" gradientUnits="userSpaceOnUse">
      <stop offset="0" stop-color="#cf41e8"/>
      <stop offset="1" stop-color="#10f2b0"/>
    </linearGradient>
  </defs>
  <path d="M14,0c12-.7,20.1,12.1,13.8,22.7-5.9,10.1-20.7,9.6-26-.9S3.5.7,14,0Z"/>
  <path class="st0" d="M21,11.3s-.1,0-.2.1H7.1c-.5,0-.7-.6-.4-1l2.2-2.4s.1,0,.2,0h13.8c.5,0,.7.6.4,1,0,0-2.3,2.4-2.3,2.4ZM21,21.9c-.1.1-.2.2-.4.2H7.1c-.5,0-.7-.6-.4-.9l2.2-2.3s.1,0,.2-.1h13.8c.5,0,.7.6.4.9l-2.3,2.3h0ZM21,13.5c-.1-.1-.2-.2-.4-.2H7.1c-.5,0-.7.6-.4.9l2.2,2.3s.1,0,.2.1h13.8c.5,0,.7-.6.4-.9l-2.3-2.3h0Z"/>
</svg>