<?xml version="1.0" encoding="UTF-8"?>
<svg id="Layer_1" data-name="Layer 1" xmlns="http://www.w3.org/2000/svg" version="1.1" viewBox="0 0 36 36">
  <defs>
    <style>
      .cls-1 {
        fill: #ff060a;
      }

      .cls-1, .cls-2 {
        stroke-width: 0px;
      }

      .cls-2 {
        fill: #fff;
      }
    </style>
  </defs>
  <circle class="cls-1" cx="18" cy="18" r="18"/>
  <path class="cls-2" d="M28.9,13.5c-1.1-1-2.6-2.5-3.9-3.5h0c-.1-.1-.3-.2-.4-.3h0c-3-.5-17-3.1-17.3-3,0,0-.2,0-.2,0h0c0,.1-.2.2-.2.4h0v.3h0c1.6,4.3,7.8,18,9,21.3,0,.2.2.6.5.7h0c.1,0,.7-.8.7-.8,0,0,10.7-12.4,11.8-13.8.1-.2.3-.3.4-.5,0-.1,0-.3,0-.4s-.2-.3-.3-.4h0ZM19.8,14.9l4.6-3.6,2.7,2.4-7.3,1.3ZM18,14.7l-7.9-6.2,12.7,2.3-4.9,3.9ZM18.7,16.3l8-1.2-9.2,10.6,1.2-9.4ZM9.1,9.2l8.3,6.7-1.2,9.8-7.1-16.6Z"/>
</svg>