<svg width="30" height="30" viewBox="0 0 30 30" fill="none" xmlns="http://www.w3.org/2000/svg">
<path d="M15 30C23.3125 30 30 23.3125 30 15C30 6.68745 23.3125 0 15 0C6.68745 0 0 6.68745 0 15C0 23.3125 6.68745 30 15 30Z" fill="#2775CA"/>
<path d="M19.1668 17.2095C19.1668 15.0311 17.8609 14.2843 15.2489 13.9731C13.3832 13.7241 13.0101 13.2262 13.0101 12.3548C13.0101 11.4833 13.632 10.9233 14.8758 10.9233C15.9952 10.9233 16.6171 11.2967 16.928 12.2303C16.9902 12.417 17.1768 12.5415 17.3634 12.5415H18.3583C18.6071 12.5415 18.7937 12.3548 18.7937 12.1059V12.0436C18.5449 10.6743 17.4255 9.61623 15.9952 9.49179V7.99802C15.9952 7.74901 15.8086 7.56229 15.4977 7.5H14.5649C14.3161 7.5 14.1295 7.68672 14.0672 7.99802V9.4295C12.2016 9.67852 11.0201 10.9233 11.0201 12.4793C11.0201 14.5333 12.2638 15.3423 14.8758 15.6536C16.6171 15.9648 17.1768 16.3382 17.1768 17.3341C17.1768 18.33 16.3061 19.0146 15.1246 19.0146C13.5075 19.0146 12.9478 18.3298 12.7613 17.3962C12.6992 17.1474 12.5126 17.0228 12.326 17.0228H11.2687C11.0201 17.0228 10.8335 17.2095 10.8335 17.4585V17.5208C11.0822 19.0767 12.0772 20.1971 14.1295 20.5084V22.0021C14.1295 22.251 14.3161 22.4377 14.627 22.5H15.5598C15.8086 22.5 15.9952 22.3133 16.0574 22.0021V20.5084C17.9231 20.1971 19.1668 18.89 19.1668 17.2095Z" fill="white"/>
<path d="M11.7035 23.7668C6.66167 22.0135 4.07604 16.5655 5.95069 11.7436C6.92028 9.11356 9.05338 7.10975 11.7035 6.17044C11.9622 6.04525 12.0914 5.85738 12.0914 5.54418V4.66754C12.0914 4.41701 11.9622 4.22915 11.7035 4.16663C11.6389 4.16663 11.5096 4.16663 11.4449 4.22915C5.30424 6.10777 1.94294 12.4326 3.88212 18.3815C5.04563 21.8882 7.82518 24.5809 11.4449 25.7081C11.7035 25.8333 11.9622 25.7081 12.0267 25.4576C12.0914 25.395 12.0914 25.3324 12.0914 25.2072V24.3304C12.0914 24.1425 11.8975 23.8921 11.7035 23.7668ZM18.5554 4.22915C18.2968 4.10395 18.0382 4.22915 17.9736 4.47968C17.9089 4.54235 17.9089 4.60487 17.9089 4.73021V5.60685C17.9089 5.85739 18.1029 6.10777 18.2968 6.23311C23.3387 7.98639 25.9243 13.4344 24.0496 18.2563C23.08 20.8864 20.9469 22.8902 18.2968 23.8295C18.0382 23.9547 17.9089 24.1425 17.9089 24.4557V25.3324C17.9089 25.5829 18.0382 25.7708 18.2968 25.8333C18.3615 25.8333 18.4907 25.8333 18.5554 25.7708C24.6961 23.8922 28.0574 17.5674 26.1182 11.6184C24.9547 8.04906 22.1105 5.35632 18.5554 4.22915Z" fill="white"/>
</svg>
