<?xml version="1.0" encoding="UTF-8"?>
<svg id="Layer_1" data-name="Layer 1" xmlns="http://www.w3.org/2000/svg" version="1.1" viewBox="0 0 36 36">
  <defs>
    <style>
      .cls-1 {
        fill: #f3ba2f;
      }

      .cls-1, .cls-2, .cls-3 {
        stroke-width: 0px;
      }

      .cls-2 {
        fill: #fff;
        fill-rule: evenodd;
      }

      .cls-3 {
        fill: #0db46e;
      }
    </style>
  </defs>
  <g>
    <circle class="cls-3" cx="18" cy="18" r="18"/>
    <path class="cls-2" d="M20.4,19.8c-.1,0-.8,0-2.4,0s-2.1,0-2.5,0c-4.9-.2-8.5-1.1-8.5-2.1s3.6-1.8,8.5-2.1v3.3c.3,0,1.2,0,2.5,0s2.3,0,2.4,0v-3.3c4.8.2,8.5,1.1,8.5,2.1s-3.6,1.8-8.4,2.1ZM20.4,15.3v-2.9h6.8v-4.5H8.7v4.5h6.8v2.9c-5.5.2-9.6,1.3-9.6,2.6s4.1,2.4,9.6,2.6v9.4h4.9v-9.4c5.5-.2,9.6-1.3,9.6-2.6s-4.1-2.4-9.6-2.6Z"/>
  </g>
  <path class="cls-1" d="M24.6,29c4.3,0,7.7-3.3,7.7-7.4s-3.5-7.4-7.7-7.4-7.7,3.3-7.7,7.4,3.5,7.4,7.7,7.4Z"/>
  <g id="Icons_icon-24_networks_binance_smart_chain" data-name="Icons/icon-24/networks/binance_smart_chain">
    <path id="Combined-Shape" class="cls-2" d="M26.5,22.4l1.1,1.1-3,3-3-3,1.1-1.1,1.9,1.9,1.9-1.9ZM24.6,20.5l1.1,1.1h0l-1.1,1.1-1.1-1.1h0s.2-.2.2-.2h0c0,0,.8-.9.8-.9ZM20.8,20.5l1.1,1.1-1.1,1.1-1.1-1.1,1.1-1.1ZM28.4,20.5l1.1,1.1-1.1,1.1-1.1-1.1,1.1-1.1ZM24.6,16.6l3,3-1.1,1.1-1.9-1.9-1.9,1.9-1.1-1.1,3-3Z"/>
  </g>
</svg>