<?xml version="1.0" encoding="UTF-8"?>
<svg id="Layer_1" data-name="Layer 1" xmlns="http://www.w3.org/2000/svg" version="1.1" viewBox="0 0 36 36">
  <defs>
    <style>
      .cls-1 {
        fill: #ff060a;
      }

      .cls-1, .cls-2, .cls-3, .cls-4 {
        stroke-width: 0px;
      }

      .cls-2 {
        fill-rule: evenodd;
      }

      .cls-2, .cls-4 {
        fill: #fff;
      }

      .cls-3 {
        fill: #0db46e;
      }
    </style>
  </defs>
  <g>
    <circle class="cls-3" cx="18" cy="18" r="18"/>
    <path class="cls-2" d="M20.4,19.8c-.1,0-.8,0-2.4,0s-2.1,0-2.5,0c-4.9-.2-8.5-1.1-8.5-2.1s3.6-1.8,8.5-2.1v3.3c.3,0,1.2,0,2.5,0s2.3,0,2.4,0v-3.3c4.8.2,8.5,1.1,8.5,2.1s-3.6,1.8-8.4,2.1ZM20.4,15.3v-2.9h6.8v-4.5H8.7v4.5h6.8v2.9c-5.5.2-9.6,1.3-9.6,2.6s4.1,2.4,9.6,2.6v9.4h4.9v-9.4c5.5-.2,9.6-1.3,9.6-2.6s-4.1-2.4-9.6-2.6Z"/>
  </g>
  <g>
    <path class="cls-1" d="M24.6,29c4.3,0,7.7-3.3,7.7-7.4s-3.5-7.4-7.7-7.4-7.7,3.3-7.7,7.4,3.5,7.4,7.7,7.4Z"/>
    <path class="cls-4" d="M28.9,20.3c-.4-.4-1-1-1.5-1.4h0c0,0-.1,0-.2-.1h0c-1.2-.2-6.6-1.2-6.7-1.2,0,0,0,0,0,0h0c0,0,0,0,0,.1h0c.6,1.8,3,7.1,3.5,8.3,0,0,0,.2.2.3h0c0,0,.3-.3.3-.3,0,0,4.1-4.8,4.5-5.3,0,0,.1-.1.1-.2,0,0,0-.1,0-.2s0-.1-.1-.1h0ZM25.4,20.8l1.8-1.4,1,.9-2.8.5ZM24.8,20.7l-3-2.4,4.9.9-1.9,1.5ZM25,21.4l3.1-.5-3.5,4.1.4-3.6ZM21.3,18.6l3.2,2.6-.5,3.8-2.7-6.4Z"/>
  </g>
</svg>