<svg width="24" height="24" viewBox="0 0 24 24" fill="none" xmlns="http://www.w3.org/2000/svg">
<circle cx="12" cy="12" r="12" fill="#0DB46E"/>
<path fill-rule="evenodd" clip-rule="evenodd" d="M13.5814 13.1796C13.49 13.1871 13.0181 13.2174 11.9677 13.2174C11.1304 13.2174 10.5367 13.1947 10.3236 13.1796C7.08864 13.0359 4.67576 12.4765 4.67576 11.8111C4.67576 11.1458 7.08864 10.5864 10.3236 10.4352V12.6201C10.5367 12.6352 11.138 12.673 11.9753 12.673C12.9801 12.673 13.4824 12.6277 13.5738 12.6201V10.4352C16.8011 10.5788 19.214 11.1383 19.214 11.8036C19.214 12.4689 16.8087 13.0359 13.5814 13.1796ZM13.5814 10.2159V8.25781H18.0875V5.27148H5.8175V8.25781H10.3236V10.2159C6.66239 10.3823 3.90698 11.1005 3.90698 11.9699C3.90698 12.8394 6.66239 13.55 10.3236 13.7239V19.9914H13.5814V13.7239C17.235 13.5576 19.9827 12.8394 19.9827 11.9775C19.9827 11.1156 17.235 10.3823 13.5814 10.2159Z" fill="white"/>
</svg>
