<svg width="30" height="31" viewBox="0 0 30 31" fill="none" xmlns="http://www.w3.org/2000/svg">
<path d="M15 30.9793C17.9659 30.9793 20.8679 30.1015 23.3352 28.4523C25.8026 26.8032 27.7244 24.4594 28.858 21.7194C29.9915 18.9793 30.2898 15.9623 29.7102 13.0518C29.1307 10.1413 27.7031 7.46939 25.6065 5.3728C23.5099 3.2762 20.8381 1.84439 17.9276 1.2691C15.017 0.689556 12 0.987852 9.25994 2.12137C6.51989 3.2549 4.17614 5.18103 2.52699 7.6441C0.877841 10.1114 0 13.0134 0 15.9793C0 19.9594 1.58097 23.7734 4.39347 26.5859C7.20597 29.3984 11.0199 30.9793 15 30.9793Z" fill="#23292F"/>
<path d="M20.4885 9.59119H22.7428L18.0553 14.2702C17.2414 15.0841 16.1334 15.54 14.9829 15.54C13.8323 15.54 12.7243 15.0841 11.9104 14.2702L7.23145 9.59119H9.48571L13.0482 13.1452C13.5638 13.6608 14.2627 13.9506 14.9956 13.9506C15.7286 13.9506 16.4275 13.6608 16.9431 13.1452L20.4885 9.59119Z" fill="white"/>
<path d="M9.47292 22.6054H7.23145L11.9403 17.8966C12.7542 17.0827 13.8621 16.6267 15.0127 16.6267C16.1633 16.6267 17.2712 17.0827 18.0851 17.8966L22.7982 22.6054H20.5439L16.9559 19.0216C16.4403 18.506 15.7414 18.2162 15.0084 18.2162C14.2797 18.2162 13.5809 18.506 13.061 19.0216L9.47292 22.6054Z" fill="white"/>
</svg>
